<svg xmlns="http://www.w3.org/2000/svg" xmlns:xlink="http://www.w3.org/1999/xlink" id="body_5" preserveAspectRatio="xMinYMin meet" viewBox="0 0 793 1121"><defs><clipPath id="1"><path id="" clip-rule="evenodd" transform="matrix(1 0 0 1 0 0)" d="M0 841L0 -0.9199829L0 -0.9199829L595.32 -0.9199829L595.32 -0.9199829L595.32 841L595.32 841L0 841z" /></clipPath><clipPath id="2"><path id="" clip-rule="evenodd" transform="matrix(1 0 0 1 0 0)" d="M8.871E-06 841L595.32 841L595.32 841L595.32 -0.9199829L595.32 -0.9199829L8.871E-06 -0.9199829z" /></clipPath><clipPath id="3"><path id="" clip-rule="evenodd" transform="matrix(1 0 0 1 0 0)" d="M8.871E-06 841L595.32 841L595.32 841L595.32 -0.9199829L595.32 -0.9199829L8.871E-06 -0.9199829z" /></clipPath><clipPath id="4"><path id="" clip-rule="evenodd" transform="matrix(1 0 0 1 0 0)" d="M39.96 215.7L431.11 215.7L431.11 215.7L431.11 89.94L431.11 89.94L39.96 89.94z" /></clipPath><clipPath id="5"><path id="" clip-rule="evenodd" transform="matrix(1 0 0 1 0 0)" d="M39.96 215.7L431.11 215.7L431.11 215.7L431.11 89.94L431.11 89.94L39.96 89.94z" /></clipPath><clipPath id="6"><path id="" clip-rule="evenodd" transform="matrix(1 0 0 1 0 0)" d="M39.96 215.7L431.11 215.7L431.11 215.7L431.11 89.94L431.11 89.94L39.96 89.94z" /></clipPath><clipPath id="7"><path id="" clip-rule="evenodd" transform="matrix(1 0 0 1 0 0)" d="M39.96 215.7L431.11 215.7L431.11 215.7L431.11 89.94L431.11 89.94L39.96 89.94z" /></clipPath><clipPath id="8"><path id="" clip-rule="evenodd" transform="matrix(1 0 0 1 0 0)" d="M39.96 215.7L431.11 215.7L431.11 215.7L431.11 89.94L431.11 89.94L39.96 89.94z" /></clipPath><clipPath id="9"><path id="" clip-rule="evenodd" transform="matrix(1 0 0 1 0 0)" d="M39.96 215.7L431.11 215.7L431.11 215.7L431.11 89.94L431.11 89.94L39.96 89.94z" /></clipPath><clipPath id="10"><path id="" clip-rule="evenodd" transform="matrix(1 0 0 1 0 0)" d="M39.96 215.7L431.11 215.7L431.11 215.7L431.11 89.94L431.11 89.94L39.96 89.94z" /></clipPath><clipPath id="11"><path id="" clip-rule="evenodd" transform="matrix(1 0 0 1 0 0)" d="M39.96 215.7L431.11 215.7L431.11 215.7L431.11 89.94L431.11 89.94L39.96 89.94z" /></clipPath><clipPath id="12"><path id="" clip-rule="evenodd" transform="matrix(1 0 0 1 0 0)" d="M39.96 215.7L431.11 215.7L431.11 215.7L431.11 89.94L431.11 89.94L39.96 89.94z" /></clipPath><clipPath id="13"><path id="" clip-rule="evenodd" transform="matrix(1 0 0 1 0 0)" d="M39.96 215.7L431.11 215.7L431.11 215.7L431.11 89.94L431.11 89.94L39.96 89.94z" /></clipPath><clipPath id="14"><path id="" clip-rule="evenodd" transform="matrix(1 0 0 1 0 0)" d="M39.96 215.7L431.11 215.7L431.11 215.7L431.11 89.94L431.11 89.94L39.96 89.94z" /></clipPath><clipPath id="15"><path id="" clip-rule="evenodd" transform="matrix(1 0 0 1 0 0)" d="M39.96 215.7L431.11 215.7L431.11 215.7L431.11 89.94L431.11 89.94L39.96 89.94z" /></clipPath><clipPath id="16"><path id="" clip-rule="evenodd" transform="matrix(1 0 0 1 0 0)" d="M39.96 215.7L431.11 215.7L431.11 215.7L431.11 89.94L431.11 89.94L39.96 89.94z" /></clipPath><clipPath id="17"><path id="" clip-rule="evenodd" transform="matrix(1 0 0 1 0 0)" d="M39.96 215.7L431.11 215.7L431.11 215.7L431.11 89.94L431.11 89.94L39.96 89.94z" /></clipPath><clipPath id="18"><path id="" clip-rule="evenodd" transform="matrix(1 0 0 1 0 0)" d="M39.96 215.7L431.11 215.7L431.11 215.7L431.11 89.94L431.11 89.94L39.96 89.94z" /></clipPath><clipPath id="19"><path id="" clip-rule="evenodd" transform="matrix(1 0 0 1 0 0)" d="M39.96 215.7L431.11 215.7L431.11 215.7L431.11 89.94L431.11 89.94L39.96 89.94z" /></clipPath><clipPath id="20"><path id="" clip-rule="evenodd" transform="matrix(1 0 0 1 0 0)" d="M39.96 215.7L431.11 215.7L431.11 215.7L431.11 89.94L431.11 89.94L39.96 89.94z" /></clipPath><clipPath id="21"><path id="" clip-rule="evenodd" transform="matrix(1 0 0 1 0 0)" d="M39.96 215.7L431.11 215.7L431.11 215.7L431.11 89.94L431.11 89.94L39.96 89.94z" /></clipPath><clipPath id="22"><path id="" clip-rule="evenodd" transform="matrix(1 0 0 1 0 0)" d="M39.96 215.7L431.11 215.7L431.11 215.7L431.11 89.94L431.11 89.94L39.96 89.94z" /></clipPath><clipPath id="23"><path id="" clip-rule="evenodd" transform="matrix(1 0 0 1 0 0)" d="M39.96 215.7L431.11 215.7L431.11 215.7L431.11 89.94L431.11 89.94L39.96 89.94z" /></clipPath><clipPath id="24"><path id="" clip-rule="evenodd" transform="matrix(1 0 0 1 0 0)" d="M39.96 215.7L431.11 215.7L431.11 215.7L431.11 89.94L431.11 89.94L39.96 89.94z" /></clipPath><clipPath id="25"><path id="" clip-rule="evenodd" transform="matrix(1 0 0 1 0 0)" d="M39.96 215.7L431.11 215.7L431.11 215.7L431.11 89.94L431.11 89.94L39.96 89.94z" /></clipPath><clipPath id="26"><path id="" clip-rule="evenodd" transform="matrix(1 0 0 1 0 0)" d="M39.96 215.7L431.11 215.7L431.11 215.7L431.11 89.94L431.11 89.94L39.96 89.94z" /></clipPath><clipPath id="27"><path id="" clip-rule="evenodd" transform="matrix(1 0 0 1 0 0)" d="M39.96 215.7L431.11 215.7L431.11 215.7L431.11 89.94L431.11 89.94L39.96 89.94z" /></clipPath><clipPath id="28"><path id="" clip-rule="evenodd" transform="matrix(1 0 0 1 0 0)" d="M39.96 215.7L431.11 215.7L431.11 215.7L431.11 89.94L431.11 89.94L39.96 89.94z" /></clipPath><clipPath id="29"><path id="" clip-rule="evenodd" transform="matrix(1 0 0 1 0 0)" d="M39.96 215.7L431.11 215.7L431.11 215.7L431.11 89.94L431.11 89.94L39.96 89.94z" /></clipPath><clipPath id="30"><path id="" clip-rule="evenodd" transform="matrix(1 0 0 1 0 0)" d="M39.96 215.7L431.11 215.7L431.11 215.7L431.11 89.94L431.11 89.94L39.96 89.94z" /></clipPath><clipPath id="31"><path id="" clip-rule="evenodd" transform="matrix(1 0 0 1 0 0)" d="M-1E-09 840.9998L595.32 840.9998L595.32 840.9998L595.32 -0.9202271L595.32 -0.9202271L-1E-09 -0.9202271z" /></clipPath><clipPath id="32"><path id="" clip-rule="evenodd" transform="matrix(1 0 0 1 0 0)" d="M-1E-09 840.9998L595.32 840.9998L595.32 840.9998L595.32 -0.9202271L595.32 -0.9202271L-1E-09 -0.9202271z" /></clipPath><clipPath id="33"><path id="" clip-rule="evenodd" transform="matrix(1 0 0 1 0 0)" d="M1.08 69.76001L595.32 69.76001L595.32 69.76001L595.32 3.76001L595.32 3.76001L1.08 3.76001z" /></clipPath><clipPath id="34"><path id="" clip-rule="evenodd" transform="matrix(1 0 0 1 0 0)" d="M1.08 69.76001L598.32 69.76001L598.32 69.76001L598.32 3.76001L598.32 3.76001L1.08 3.76001z" /></clipPath><clipPath id="35"><path id="" clip-rule="evenodd" transform="matrix(1 0 0 1 0 0)" d="M1.08 69.76001L598.32 69.76001L598.32 69.76001L598.32 3.76001L598.32 3.76001L1.08 3.76001z" /></clipPath><clipPath id="36"><path id="" clip-rule="evenodd" transform="matrix(1 0 0 1 0 0)" d="M1.08 69.76001L598.32 69.76001L598.32 69.76001L598.32 3.76001L598.32 3.76001L1.08 3.76001z" /></clipPath><clipPath id="37"><path id="" clip-rule="evenodd" transform="matrix(1 0 0 1 0 0)" d="M1.08 69.76001L598.32 69.76001L598.32 69.76001L598.32 3.76001L598.32 3.76001L1.08 3.76001z" /></clipPath><clipPath id="38"><path id="" clip-rule="evenodd" transform="matrix(1 0 0 1 0 0)" d="M1.08 69.76001L598.32 69.76001L598.32 69.76001L598.32 3.76001L598.32 3.76001L1.08 3.76001z" /></clipPath><clipPath id="39"><path id="" clip-rule="evenodd" transform="matrix(1 0 0 1 0 0)" d="M1.08 69.76001L598.32 69.76001L598.32 69.76001L598.32 3.76001L598.32 3.76001L1.08 3.76001z" /></clipPath><clipPath id="40"><path id="" clip-rule="evenodd" transform="matrix(1 0 0 1 0 0)" d="M1.08 69.76001L598.32 69.76001L598.32 69.76001L598.32 3.76001L598.32 3.76001L1.08 3.76001z" /></clipPath><clipPath id="41"><path id="" clip-rule="evenodd" transform="matrix(1 0 0 1 0 0)" d="M1.08 69.76001L598.32 69.76001L598.32 69.76001L598.32 3.76001L598.32 3.76001L1.08 3.76001z" /></clipPath><clipPath id="42"><path id="" clip-rule="evenodd" transform="matrix(1 0 0 1 0 0)" d="M1.08 69.76001L598.32 69.76001L598.32 69.76001L598.32 3.76001L598.32 3.76001L1.08 3.76001z" /></clipPath><clipPath id="43"><path id="" clip-rule="evenodd" transform="matrix(1 0 0 1 0 0)" d="M1.08 69.76001L598.32 69.76001L598.32 69.76001L598.32 3.76001L598.32 3.76001L1.08 3.76001z" /></clipPath><clipPath id="44"><path id="" clip-rule="evenodd" transform="matrix(1 0 0 1 0 0)" d="M1.3132E-05 840.9997L595.32 840.9997L595.32 840.9997L595.32 -0.9202881L595.32 -0.9202881L1.3132E-05 -0.9202881z" /></clipPath><clipPath id="45"><path id="" clip-rule="evenodd" transform="matrix(1 0 0 1 0 0)" d="M186.98 251.73L574.32 251.73L574.32 251.73L574.32 233.226L574.32 233.226L186.98 233.226z" /></clipPath><clipPath id="46"><path id="" clip-rule="evenodd" transform="matrix(1 0 0 1 0 0)" d="M186.98 251.73L574.32 251.73L574.32 251.73L574.32 233.226L574.32 233.226L186.98 233.226z" /></clipPath><clipPath id="47"><path id="" clip-rule="evenodd" transform="matrix(1 0 0 1 0 0)" d="M186.98 251.73L574.32 251.73L574.32 251.73L574.32 233.226L574.32 233.226L186.98 233.226z" /></clipPath><clipPath id="48"><path id="" clip-rule="evenodd" transform="matrix(1 0 0 1 0 0)" d="M186.26 389.01L575.16 389.01L575.16 389.01L575.16 266.25L575.16 266.25L186.26 266.25z" /></clipPath><clipPath id="49"><path id="" clip-rule="evenodd" transform="matrix(1 0 0 1 0 0)" d="M186.26 389.01L575.16 389.01L575.16 389.01L575.16 266.25L575.16 266.25L186.26 266.25z" /></clipPath><clipPath id="50"><path id="" clip-rule="evenodd" transform="matrix(1 0 0 1 0 0)" d="M186.26 389.01L575.16 389.01L575.16 389.01L575.16 266.25L575.16 266.25L186.26 266.25z" /></clipPath><clipPath id="51"><path id="" clip-rule="evenodd" transform="matrix(1 0 0 1 0 0)" d="M186.26 389.01L575.16 389.01L575.16 389.01L575.16 266.25L575.16 266.25L186.26 266.25z" /></clipPath><clipPath id="52"><path id="" clip-rule="evenodd" transform="matrix(1 0 0 1 0 0)" d="M186.26 389.01L575.16 389.01L575.16 389.01L575.16 266.25L575.16 266.25L186.26 266.25z" /></clipPath><clipPath id="53"><path id="" clip-rule="evenodd" transform="matrix(1 0 0 1 0 0)" d="M186.26 389.01L575.16 389.01L575.16 389.01L575.16 266.25L575.16 266.25L186.26 266.25z" /></clipPath><clipPath id="54"><path id="" clip-rule="evenodd" transform="matrix(1 0 0 1 0 0)" d="M186.26 389.01L575.16 389.01L575.16 389.01L575.16 266.25L575.16 266.25L186.26 266.25z" /></clipPath><clipPath id="55"><path id="" clip-rule="evenodd" transform="matrix(1 0 0 1 0 0)" d="M186.26 389.01L575.16 389.01L575.16 389.01L575.16 266.25L575.16 266.25L186.26 266.25z" /></clipPath><clipPath id="56"><path id="" clip-rule="evenodd" transform="matrix(1 0 0 1 0 0)" d="M186.26 389.01L575.16 389.01L575.16 389.01L575.16 266.25L575.16 266.25L186.26 266.25z" /></clipPath><clipPath id="57"><path id="" clip-rule="evenodd" transform="matrix(1 0 0 1 0 0)" d="M186.26 389.01L575.16 389.01L575.16 389.01L575.16 266.25L575.16 266.25L186.26 266.25z" /></clipPath><clipPath id="58"><path id="" clip-rule="evenodd" transform="matrix(1 0 0 1 0 0)" d="M186.26 389.01L575.16 389.01L575.16 389.01L575.16 266.25L575.16 266.25L186.26 266.25z" /></clipPath><clipPath id="59"><path id="" clip-rule="evenodd" transform="matrix(1 0 0 1 0 0)" d="M186.26 389.01L575.16 389.01L575.16 389.01L575.16 266.25L575.16 266.25L186.26 266.25z" /></clipPath><clipPath id="60"><path id="" clip-rule="evenodd" transform="matrix(1 0 0 1 0 0)" d="M186.26 389.01L575.16 389.01L575.16 389.01L575.16 266.25L575.16 266.25L186.26 266.25z" /></clipPath><clipPath id="61"><path id="" clip-rule="evenodd" transform="matrix(1 0 0 1 0 0)" d="M186.26 389.01L575.16 389.01L575.16 389.01L575.16 266.25L575.16 266.25L186.26 266.25z" /></clipPath><clipPath id="62"><path id="" clip-rule="evenodd" transform="matrix(1 0 0 1 0 0)" d="M186.26 389.01L575.16 389.01L575.16 389.01L575.16 266.25L575.16 266.25L186.26 266.25z" /></clipPath><clipPath id="63"><path id="" clip-rule="evenodd" transform="matrix(1 0 0 1 0 0)" d="M186.26 389.01L575.16 389.01L575.16 389.01L575.16 266.25L575.16 266.25L186.26 266.25z" /></clipPath><clipPath id="64"><path id="" clip-rule="evenodd" transform="matrix(1 0 0 1 0 0)" d="M186.26 389.01L575.16 389.01L575.16 389.01L575.16 266.25L575.16 266.25L186.26 266.25z" /></clipPath><clipPath id="65"><path id="" clip-rule="evenodd" transform="matrix(1 0 0 1 0 0)" d="M186.26 389.01L575.16 389.01L575.16 389.01L575.16 266.25L575.16 266.25L186.26 266.25z" /></clipPath><clipPath id="66"><path id="" clip-rule="evenodd" transform="matrix(1 0 0 1 0 0)" d="M186.26 389.01L575.16 389.01L575.16 389.01L575.16 266.25L575.16 266.25L186.26 266.25z" /></clipPath><clipPath id="67"><path id="" clip-rule="evenodd" transform="matrix(1 0 0 1 0 0)" d="M186.26 389.01L575.16 389.01L575.16 389.01L575.16 266.25L575.16 266.25L186.26 266.25z" /></clipPath><clipPath id="68"><path id="" clip-rule="evenodd" transform="matrix(1 0 0 1 0 0)" d="M-1.682E-06 840.9998L595.32 840.9998L595.32 840.9998L595.32 -0.920166L595.32 -0.920166L-1.682E-06 -0.920166z" /></clipPath><clipPath id="69"><path id="" clip-rule="evenodd" transform="matrix(1 0 0 1 0 0)" d="M35.52 625.34L567.94 625.34L567.94 625.34L567.94 459L567.94 459L35.52 459z" /></clipPath><clipPath id="70"><path id="" clip-rule="evenodd" transform="matrix(1 0 0 1 0 0)" d="M35.52 625.34L567.94 625.34L567.94 625.34L567.94 459L567.94 459L35.52 459z" /></clipPath><clipPath id="71"><path id="" clip-rule="evenodd" transform="matrix(1 0 0 1 0 0)" d="M35.52 625.34L567.94 625.34L567.94 625.34L567.94 459L567.94 459L35.52 459z" /></clipPath><clipPath id="72"><path id="" clip-rule="evenodd" transform="matrix(1 0 0 1 0 0)" d="M35.52 625.34L567.94 625.34L567.94 625.34L567.94 459L567.94 459L35.52 459z" /></clipPath><clipPath id="73"><path id="" clip-rule="evenodd" transform="matrix(1 0 0 1 0 0)" d="M35.52 625.34L567.94 625.34L567.94 625.34L567.94 459L567.94 459L35.52 459z" /></clipPath><clipPath id="74"><path id="" clip-rule="evenodd" transform="matrix(1 0 0 1 0 0)" d="M35.52 625.34L567.94 625.34L567.94 625.34L567.94 459L567.94 459L35.52 459z" /></clipPath><clipPath id="75"><path id="" clip-rule="evenodd" transform="matrix(1 0 0 1 0 0)" d="M35.52 625.34L567.94 625.34L567.94 625.34L567.94 459L567.94 459L35.52 459z" /></clipPath><clipPath id="76"><path id="" clip-rule="evenodd" transform="matrix(1 0 0 1 0 0)" d="M35.52 625.34L567.94 625.34L567.94 625.34L567.94 459L567.94 459L35.52 459z" /></clipPath><clipPath id="77"><path id="" clip-rule="evenodd" transform="matrix(1 0 0 1 0 0)" d="M35.52 625.34L567.94 625.34L567.94 625.34L567.94 459L567.94 459L35.52 459z" /></clipPath><clipPath id="78"><path id="" clip-rule="evenodd" transform="matrix(1 0 0 1 0 0)" d="M35.52 625.34L567.94 625.34L567.94 625.34L567.94 459L567.94 459L35.52 459z" /></clipPath><clipPath id="79"><path id="" clip-rule="evenodd" transform="matrix(1 0 0 1 0 0)" d="M35.52 625.34L567.94 625.34L567.94 625.34L567.94 459L567.94 459L35.52 459z" /></clipPath><clipPath id="80"><path id="" clip-rule="evenodd" transform="matrix(1 0 0 1 0 0)" d="M35.52 625.34L567.94 625.34L567.94 625.34L567.94 459L567.94 459L35.52 459z" /></clipPath><clipPath id="81"><path id="" clip-rule="evenodd" transform="matrix(1 0 0 1 0 0)" d="M35.52 625.34L567.94 625.34L567.94 625.34L567.94 459L567.94 459L35.52 459z" /></clipPath><clipPath id="82"><path id="" clip-rule="evenodd" transform="matrix(1 0 0 1 0 0)" d="M35.52 625.34L567.94 625.34L567.94 625.34L567.94 459L567.94 459L35.52 459z" /></clipPath><clipPath id="83"><path id="" clip-rule="evenodd" transform="matrix(1 0 0 1 0 0)" d="M35.52 625.34L567.94 625.34L567.94 625.34L567.94 459L567.94 459L35.52 459z" /></clipPath><clipPath id="84"><path id="" clip-rule="evenodd" transform="matrix(1 0 0 1 0 0)" d="M35.52 625.34L567.94 625.34L567.94 625.34L567.94 459L567.94 459L35.52 459z" /></clipPath><clipPath id="85"><path id="" clip-rule="evenodd" transform="matrix(1 0 0 1 0 0)" d="M35.52 625.34L567.94 625.34L567.94 625.34L567.94 459L567.94 459L35.52 459z" /></clipPath><clipPath id="86"><path id="" clip-rule="evenodd" transform="matrix(1 0 0 1 0 0)" d="M35.52 625.34L567.94 625.34L567.94 625.34L567.94 459L567.94 459L35.52 459z" /></clipPath><clipPath id="87"><path id="" clip-rule="evenodd" transform="matrix(1 0 0 1 0 0)" d="M35.52 625.34L567.94 625.34L567.94 625.34L567.94 459L567.94 459L35.52 459z" /></clipPath><clipPath id="88"><path id="" clip-rule="evenodd" transform="matrix(1 0 0 1 0 0)" d="M35.52 625.34L567.94 625.34L567.94 625.34L567.94 459L567.94 459L35.52 459z" /></clipPath><clipPath id="89"><path id="" clip-rule="evenodd" transform="matrix(1 0 0 1 0 0)" d="M35.52 625.34L567.94 625.34L567.94 625.34L567.94 459L567.94 459L35.52 459z" /></clipPath><clipPath id="90"><path id="" clip-rule="evenodd" transform="matrix(1 0 0 1 0 0)" d="M35.52 625.34L567.94 625.34L567.94 625.34L567.94 459L567.94 459L35.52 459z" /></clipPath><clipPath id="91"><path id="" clip-rule="evenodd" transform="matrix(1 0 0 1 0 0)" d="M35.52 625.34L567.94 625.34L567.94 625.34L567.94 459L567.94 459L35.52 459z" /></clipPath><clipPath id="92"><path id="" clip-rule="evenodd" transform="matrix(1 0 0 1 0 0)" d="M35.52 625.34L567.94 625.34L567.94 625.34L567.94 459L567.94 459L35.52 459z" /></clipPath><clipPath id="93"><path id="" clip-rule="evenodd" transform="matrix(1 0 0 1 0 0)" d="M35.52 625.34L567.94 625.34L567.94 625.34L567.94 459L567.94 459L35.52 459z" /></clipPath><clipPath id="94"><path id="" clip-rule="evenodd" transform="matrix(1 0 0 1 0 0)" d="M35.52 625.34L567.94 625.34L567.94 625.34L567.94 459L567.94 459L35.52 459z" /></clipPath><clipPath id="95"><path id="" clip-rule="evenodd" transform="matrix(1 0 0 1 0 0)" d="M35.52 625.34L567.94 625.34L567.94 625.34L567.94 459L567.94 459L35.52 459z" /></clipPath><clipPath id="96"><path id="" clip-rule="evenodd" transform="matrix(1 0 0 1 0 0)" d="M36.96 442.31L566.86 442.31L566.86 442.31L566.86 423.71L566.86 423.71L36.96 423.71z" /></clipPath><clipPath id="97"><path id="" clip-rule="evenodd" transform="matrix(1 0 0 1 0 0)" d="M36.96 442.31L566.86 442.31L566.86 442.31L566.86 423.71L566.86 423.71L36.96 423.71z" /></clipPath><clipPath id="98"><path id="" clip-rule="evenodd" transform="matrix(1 0 0 1 0 0)" d="M36.96 442.31L566.86 442.31L566.86 442.31L566.86 423.71L566.86 423.71L36.96 423.71z" /></clipPath><clipPath id="99"><path id="" clip-rule="evenodd" transform="matrix(1 0 0 1 0 0)" d="M-4.074E-06 840.9998L595.32 840.9998L595.32 840.9998L595.32 -0.9202271L595.32 -0.9202271L-4.074E-06 -0.9202271z" /></clipPath><clipPath id="100"><path id="" clip-rule="evenodd" transform="matrix(1 0 0 1 0 0)" d="M3.486E-06 840.9998L595.32 840.9998L595.32 840.9998L595.32 -0.9202271L595.32 -0.9202271L3.486E-06 -0.9202271z" /></clipPath><clipPath id="101"><path id="" clip-rule="evenodd" transform="matrix(1 0 0 1 0 0)" d="M-2.259E-06 840.9998L595.32 840.9998L595.32 840.9998L595.32 -0.9202271L595.32 -0.9202271L-2.259E-06 -0.9202271z" /></clipPath><clipPath id="102"><path id="" clip-rule="evenodd" transform="matrix(1 0 0 1 0 0)" d="M-1.0623E-05 840.9998L595.32 840.9998L595.32 840.9998L595.32 -0.9202271L595.32 -0.9202271L-1.0623E-05 -0.9202271z" /></clipPath></defs><g transform="matrix(1.333333 0 0 1.333333 0 0)"><g clip-path="url(#1)"><g clip-path="url(#2)"></g><g clip-path="url(#3)"></g><path id="1" transform="matrix(1 0 0 -1 0 841)" d="M39.75 621.42L431.25 621.42L431.25 621.42L431.25 754.92L431.25 754.92L39.75 754.92z" stroke="none" fill="#FFFFFF" fill-rule="evenodd" /><path id="2" transform="matrix(1 0 0 -1 0 841)" d="M39.75 621.42L431.25 621.42L431.25 621.42L431.25 754.92L431.25 754.92L39.75 754.92z" stroke="#7C7C7C" stroke-width="0.5" fill="none" /><g clip-path="url(#4)"><g clip-path="url(#5)"></g><g clip-path="url(#6)"></g><g clip-path="url(#7)"></g><g clip-path="url(#8)"></g><g clip-path="url(#9)"></g><g clip-path="url(#10)"></g><g clip-path="url(#11)"></g><g clip-path="url(#12)"></g><g clip-path="url(#13)"></g><g clip-path="url(#14)"></g><g clip-path="url(#15)"></g><g clip-path="url(#16)"></g><g clip-path="url(#17)"></g><g clip-path="url(#18)"></g><g clip-path="url(#19)"></g><g clip-path="url(#20)"></g><g clip-path="url(#21)"></g><g clip-path="url(#22)"></g><g clip-path="url(#23)"></g><g clip-path="url(#24)"></g><g clip-path="url(#25)"></g><g clip-path="url(#26)"></g><g clip-path="url(#27)"></g><g clip-path="url(#28)"></g><g clip-path="url(#29)"></g><g clip-path="url(#30)"></g></g><g clip-path="url(#31)"><path id="494" transform="matrix(1 0 0 -1 0 841)" d="M0.75 767.32L598.5 767.32L598.5 767.32L598.5 841.17L598.5 841.17L0.75 841.17z" stroke="none" fill="#203864" fill-rule="evenodd" /></g><g clip-path="url(#32)"><path id="495" transform="matrix(1 0 0 -1 0 841)" d="M0.75 767.32L598.5 767.32L598.5 767.32L598.5 841.17L598.5 841.17L0.75 841.17z" stroke="#548235" stroke-width="0.75" fill="none" /></g><g clip-path="url(#33)"><g clip-path="url(#34)"></g><g clip-path="url(#35)"></g><g clip-path="url(#36)"></g><g clip-path="url(#37)"></g><g clip-path="url(#38)"></g><g clip-path="url(#39)"></g><g clip-path="url(#40)"></g><g clip-path="url(#41)"></g><g clip-path="url(#42)"></g><g clip-path="url(#43)"></g></g><g clip-path="url(#44)"><g transform="matrix(0.3279255 0 0 0.3267066 444.75 95.83002)"><g transform="matrix(1 0 0 1 0 0)"><image x="0" y="0" xlink:href="img_20.png" width="376" height="334" /></g></g></g><path id="539" transform="matrix(1 0 0 -1 0 841)" d="M186.75 585.42L574.5 585.42L574.5 585.42L574.5 611.67L574.5 611.67L186.75 611.67z" stroke="none" fill="#C00000" fill-rule="evenodd" /><g clip-path="url(#45)"><g clip-path="url(#46)"></g><g clip-path="url(#47)"></g></g><path id="574" transform="matrix(1 0 0 -1 0 841)" d="M186 448.17L575.25 448.17L575.25 448.17L575.25 578.67L575.25 578.67L186 578.67z" stroke="none" fill="#FFFFFF" fill-rule="evenodd" /><path id="575" transform="matrix(1 0 0 -1 0 841)" d="M186 448.17L575.25 448.17L575.25 448.17L575.25 578.67L575.25 578.67L186 578.67z" stroke="#7C7C7C" stroke-width="0.5" fill="none" /><g clip-path="url(#48)"><g clip-path="url(#49)"></g><g clip-path="url(#50)"></g><g clip-path="url(#51)"></g><g clip-path="url(#52)"></g><g clip-path="url(#53)"></g><g clip-path="url(#54)"></g><g clip-path="url(#55)"></g><g clip-path="url(#56)"></g><g clip-path="url(#57)"></g><g clip-path="url(#58)"></g><g clip-path="url(#59)"></g><g clip-path="url(#60)"></g><g clip-path="url(#61)"></g><g clip-path="url(#62)"></g><g clip-path="url(#63)"></g><g clip-path="url(#64)"></g><g clip-path="url(#65)"></g><g clip-path="url(#66)"></g><g clip-path="url(#67)"></g></g><g clip-path="url(#68)"><g transform="matrix(0.3403023 0 0 0.3414154 35.25 266.08)"><g transform="matrix(1 0 0 1 0 0)"><image x="0" y="0" xlink:href="img_21.png" width="397" height="325" /></g></g></g><path id="959" transform="matrix(1 0 0 -1 0 841)" d="M35.25 211.92L568.05 211.92L568.05 211.92L568.05 385.92L568.05 385.92L35.25 385.92z" stroke="none" fill="#FFFFFF" fill-rule="evenodd" /><path id="960" transform="matrix(1 0 0 -1 0 841)" d="M35.25 211.92L568.05 211.92L568.05 211.92L568.05 385.92L568.05 385.92L35.25 385.92z" stroke="#7C7C7C" stroke-width="0.5" fill="none" /><g clip-path="url(#69)"><g clip-path="url(#70)"></g><g clip-path="url(#71)"></g><g clip-path="url(#72)"></g><g clip-path="url(#73)"></g><g clip-path="url(#74)"></g><g clip-path="url(#75)"></g><g clip-path="url(#76)"></g><g clip-path="url(#77)"></g><g clip-path="url(#78)"></g><g clip-path="url(#79)"></g><g clip-path="url(#80)"></g><g clip-path="url(#81)"></g><g clip-path="url(#82)"></g><g clip-path="url(#83)"></g><g clip-path="url(#84)"></g><g clip-path="url(#85)"></g><g clip-path="url(#86)"></g><g clip-path="url(#87)"></g><g clip-path="url(#88)"></g><g clip-path="url(#89)"></g><g clip-path="url(#90)"></g><g clip-path="url(#91)"></g><g clip-path="url(#92)"></g><g clip-path="url(#93)"></g><g clip-path="url(#94)"></g><g clip-path="url(#95)"></g></g><path id="1785" transform="matrix(1 0 0 -1 0 841)" d="M36.75 394.92L567 394.92L567 394.92L567 421.17L567 421.17L36.75 421.17z" stroke="none" fill="#C00000" fill-rule="evenodd" /><g clip-path="url(#96)"><g clip-path="url(#97)"></g><g clip-path="url(#98)"></g></g><g clip-path="url(#99)"><g transform="matrix(0.3008952 0 0 0.2783659 42.75 643.333)"><g transform="matrix(1 0 0 1 0 0)"><image x="0" y="0" xlink:href="img_22.png" width="391" height="563" /></g></g></g><g clip-path="url(#100)"><g transform="matrix(0.4354873 0 0 0.4355 389.75 654.577)"><g transform="matrix(1 0 0 1 0 0)"><image x="0" y="0" xlink:href="img_23.png" width="472" height="260" /></g></g></g><g clip-path="url(#101)"><g transform="matrix(0.3268722 0 0 0.3271863 120 636.584)"><g transform="matrix(1 0 0 1 0 0)"><image x="0" y="0" xlink:href="img_24.png" width="227" height="204" /></g></g></g><g clip-path="url(#102)"><g transform="matrix(0.3257815 0 0 0.3261838 208.7 659.83)"><g transform="matrix(1 0 0 1 0 0)"><image x="0" y="0" xlink:href="img_25.png" width="595" height="359" /></g></g></g></g></g></svg>