<svg xmlns="http://www.w3.org/2000/svg" xmlns:xlink="http://www.w3.org/1999/xlink" id="body_6" preserveAspectRatio="xMinYMin meet" viewBox="0 0 793 1121"><defs><clipPath id="1"><path id="" clip-rule="evenodd" transform="matrix(1 0 0 1 0 0)" d="M0 841L0 -0.9199829L0 -0.9199829L595.32 -0.9199829L595.32 -0.9199829L595.32 841L595.32 841L0 841z" /></clipPath><clipPath id="2"><path id="" clip-rule="evenodd" transform="matrix(1 0 0 1 0 0)" d="M8.871E-06 841L595.32 841L595.32 841L595.32 -0.9199829L595.32 -0.9199829L8.871E-06 -0.9199829z" /></clipPath><clipPath id="3"><path id="" clip-rule="evenodd" transform="matrix(1 0 0 1 0 0)" d="M8.871E-06 841L595.32 841L595.32 841L595.32 -0.9199829L595.32 -0.9199829L8.871E-06 -0.9199829z" /></clipPath><clipPath id="4"><path id="" clip-rule="evenodd" transform="matrix(1 0 0 1 0 0)" d="M-1E-09 840.9998L595.32 840.9998L595.32 840.9998L595.32 -0.9202271L595.32 -0.9202271L-1E-09 -0.9202271z" /></clipPath><clipPath id="5"><path id="" clip-rule="evenodd" transform="matrix(1 0 0 1 0 0)" d="M-1E-09 840.9998L595.32 840.9998L595.32 840.9998L595.32 -0.9202271L595.32 -0.9202271L-1E-09 -0.9202271z" /></clipPath><clipPath id="6"><path id="" clip-rule="evenodd" transform="matrix(1 0 0 1 0 0)" d="M1.08 69.76001L595.32 69.76001L595.32 69.76001L595.32 3.76001L595.32 3.76001L1.08 3.76001z" /></clipPath><clipPath id="7"><path id="" clip-rule="evenodd" transform="matrix(1 0 0 1 0 0)" d="M1.08 69.76001L598.32 69.76001L598.32 69.76001L598.32 3.76001L598.32 3.76001L1.08 3.76001z" /></clipPath><clipPath id="8"><path id="" clip-rule="evenodd" transform="matrix(1 0 0 1 0 0)" d="M1.08 69.76001L598.32 69.76001L598.32 69.76001L598.32 3.76001L598.32 3.76001L1.08 3.76001z" /></clipPath><clipPath id="9"><path id="" clip-rule="evenodd" transform="matrix(1 0 0 1 0 0)" d="M1.08 69.76001L598.32 69.76001L598.32 69.76001L598.32 3.76001L598.32 3.76001L1.08 3.76001z" /></clipPath><clipPath id="10"><path id="" clip-rule="evenodd" transform="matrix(1 0 0 1 0 0)" d="M1.08 69.76001L598.32 69.76001L598.32 69.76001L598.32 3.76001L598.32 3.76001L1.08 3.76001z" /></clipPath><clipPath id="11"><path id="" clip-rule="evenodd" transform="matrix(1 0 0 1 0 0)" d="M1.08 69.76001L598.32 69.76001L598.32 69.76001L598.32 3.76001L598.32 3.76001L1.08 3.76001z" /></clipPath><clipPath id="12"><path id="" clip-rule="evenodd" transform="matrix(1 0 0 1 0 0)" d="M1.08 69.76001L598.32 69.76001L598.32 69.76001L598.32 3.76001L598.32 3.76001L1.08 3.76001z" /></clipPath><clipPath id="13"><path id="" clip-rule="evenodd" transform="matrix(1 0 0 1 0 0)" d="M1.08 69.76001L598.32 69.76001L598.32 69.76001L598.32 3.76001L598.32 3.76001L1.08 3.76001z" /></clipPath><clipPath id="14"><path id="" clip-rule="evenodd" transform="matrix(1 0 0 1 0 0)" d="M1.08 69.76001L598.32 69.76001L598.32 69.76001L598.32 3.76001L598.32 3.76001L1.08 3.76001z" /></clipPath><clipPath id="15"><path id="" clip-rule="evenodd" transform="matrix(1 0 0 1 0 0)" d="M1.08 69.76001L598.32 69.76001L598.32 69.76001L598.32 3.76001L598.32 3.76001L1.08 3.76001z" /></clipPath><clipPath id="16"><path id="" clip-rule="evenodd" transform="matrix(1 0 0 1 0 0)" d="M1.08 69.76001L598.32 69.76001L598.32 69.76001L598.32 3.76001L598.32 3.76001L1.08 3.76001z" /></clipPath><clipPath id="17"><path id="" clip-rule="evenodd" transform="matrix(1 0 0 1 0 0)" d="M39.24 622.34L566.14 622.34L566.14 622.34L566.14 476.28L566.14 476.28L39.24 476.28z" /></clipPath><clipPath id="18"><path id="" clip-rule="evenodd" transform="matrix(1 0 0 1 0 0)" d="M39.24 622.34L566.14 622.34L566.14 622.34L566.14 476.28L566.14 476.28L39.24 476.28z" /></clipPath><clipPath id="19"><path id="" clip-rule="evenodd" transform="matrix(1 0 0 1 0 0)" d="M39.24 622.34L566.14 622.34L566.14 622.34L566.14 476.28L566.14 476.28L39.24 476.28z" /></clipPath><clipPath id="20"><path id="" clip-rule="evenodd" transform="matrix(1 0 0 1 0 0)" d="M39.24 622.34L566.14 622.34L566.14 622.34L566.14 476.28L566.14 476.28L39.24 476.28z" /></clipPath><clipPath id="21"><path id="" clip-rule="evenodd" transform="matrix(1 0 0 1 0 0)" d="M39.24 622.34L566.14 622.34L566.14 622.34L566.14 476.28L566.14 476.28L39.24 476.28z" /></clipPath><clipPath id="22"><path id="" clip-rule="evenodd" transform="matrix(1 0 0 1 0 0)" d="M39.24 622.34L566.14 622.34L566.14 622.34L566.14 476.28L566.14 476.28L39.24 476.28z" /></clipPath><clipPath id="23"><path id="" clip-rule="evenodd" transform="matrix(1 0 0 1 0 0)" d="M39.24 622.34L566.14 622.34L566.14 622.34L566.14 476.28L566.14 476.28L39.24 476.28z" /></clipPath><clipPath id="24"><path id="" clip-rule="evenodd" transform="matrix(1 0 0 1 0 0)" d="M39.24 622.34L566.14 622.34L566.14 622.34L566.14 476.28L566.14 476.28L39.24 476.28z" /></clipPath><clipPath id="25"><path id="" clip-rule="evenodd" transform="matrix(1 0 0 1 0 0)" d="M39.24 622.34L566.14 622.34L566.14 622.34L566.14 476.28L566.14 476.28L39.24 476.28z" /></clipPath><clipPath id="26"><path id="" clip-rule="evenodd" transform="matrix(1 0 0 1 0 0)" d="M39.24 622.34L566.14 622.34L566.14 622.34L566.14 476.28L566.14 476.28L39.24 476.28z" /></clipPath><clipPath id="27"><path id="" clip-rule="evenodd" transform="matrix(1 0 0 1 0 0)" d="M39.24 622.34L566.14 622.34L566.14 622.34L566.14 476.28L566.14 476.28L39.24 476.28z" /></clipPath><clipPath id="28"><path id="" clip-rule="evenodd" transform="matrix(1 0 0 1 0 0)" d="M39.24 622.34L566.14 622.34L566.14 622.34L566.14 476.28L566.14 476.28L39.24 476.28z" /></clipPath><clipPath id="29"><path id="" clip-rule="evenodd" transform="matrix(1 0 0 1 0 0)" d="M39.24 622.34L566.14 622.34L566.14 622.34L566.14 476.28L566.14 476.28L39.24 476.28z" /></clipPath><clipPath id="30"><path id="" clip-rule="evenodd" transform="matrix(1 0 0 1 0 0)" d="M39.24 622.34L566.14 622.34L566.14 622.34L566.14 476.28L566.14 476.28L39.24 476.28z" /></clipPath><clipPath id="31"><path id="" clip-rule="evenodd" transform="matrix(1 0 0 1 0 0)" d="M39.24 622.34L566.14 622.34L566.14 622.34L566.14 476.28L566.14 476.28L39.24 476.28z" /></clipPath><clipPath id="32"><path id="" clip-rule="evenodd" transform="matrix(1 0 0 1 0 0)" d="M39.24 622.34L566.14 622.34L566.14 622.34L566.14 476.28L566.14 476.28L39.24 476.28z" /></clipPath><clipPath id="33"><path id="" clip-rule="evenodd" transform="matrix(1 0 0 1 0 0)" d="M39.24 622.34L566.14 622.34L566.14 622.34L566.14 476.28L566.14 476.28L39.24 476.28z" /></clipPath><clipPath id="34"><path id="" clip-rule="evenodd" transform="matrix(1 0 0 1 0 0)" d="M39.24 622.34L566.14 622.34L566.14 622.34L566.14 476.28L566.14 476.28L39.24 476.28z" /></clipPath><clipPath id="35"><path id="" clip-rule="evenodd" transform="matrix(1 0 0 1 0 0)" d="M39.24 622.34L566.14 622.34L566.14 622.34L566.14 476.28L566.14 476.28L39.24 476.28z" /></clipPath><clipPath id="36"><path id="" clip-rule="evenodd" transform="matrix(1 0 0 1 0 0)" d="M39.24 622.34L566.14 622.34L566.14 622.34L566.14 476.28L566.14 476.28L39.24 476.28z" /></clipPath><clipPath id="37"><path id="" clip-rule="evenodd" transform="matrix(1 0 0 1 0 0)" d="M39.24 622.34L566.14 622.34L566.14 622.34L566.14 476.28L566.14 476.28L39.24 476.28z" /></clipPath><clipPath id="38"><path id="" clip-rule="evenodd" transform="matrix(1 0 0 1 0 0)" d="M39.96 458.75L566.02 458.75L566.02 458.75L566.02 440.27L566.02 440.27L39.96 440.27z" /></clipPath><clipPath id="39"><path id="" clip-rule="evenodd" transform="matrix(1 0 0 1 0 0)" d="M39.96 458.75L566.02 458.75L566.02 458.75L566.02 440.27L566.02 440.27L39.96 440.27z" /></clipPath><clipPath id="40"><path id="" clip-rule="evenodd" transform="matrix(1 0 0 1 0 0)" d="M39.96 458.75L566.02 458.75L566.02 458.75L566.02 440.27L566.02 440.27L39.96 440.27z" /></clipPath><clipPath id="41"><path id="" clip-rule="evenodd" transform="matrix(1 0 0 1 0 0)" d="M39.96 103.98L566.14 103.98L566.14 103.98L566.14 85.5L566.14 85.5L39.96 85.5z" /></clipPath><clipPath id="42"><path id="" clip-rule="evenodd" transform="matrix(1 0 0 1 0 0)" d="M39.96 103.98L566.14 103.98L566.14 103.98L566.14 85.5L566.14 85.5L39.96 85.5z" /></clipPath><clipPath id="43"><path id="" clip-rule="evenodd" transform="matrix(1 0 0 1 0 0)" d="M39.96 103.98L566.14 103.98L566.14 103.98L566.14 85.5L566.14 85.5L39.96 85.5z" /></clipPath><clipPath id="44"><path id="" clip-rule="evenodd" transform="matrix(1 0 0 1 0 0)" d="M-3.987E-06 840.9998L595.32 840.9998L595.32 840.9998L595.32 -0.9202271L595.32 -0.9202271L-3.987E-06 -0.9202271z" /></clipPath><clipPath id="45"><path id="" clip-rule="evenodd" transform="matrix(1 0 0 1 0 0)" d="M2.758E-06 840.9998L595.32 840.9998L595.32 840.9998L595.32 -0.9202271L595.32 -0.9202271L2.758E-06 -0.9202271z" /></clipPath><clipPath id="46"><path id="" clip-rule="evenodd" transform="matrix(1 0 0 1 0 0)" d="M-1.42E-07 840.9998L595.32 840.9998L595.32 840.9998L595.32 -0.9202271L595.32 -0.9202271L-1.42E-07 -0.9202271z" /></clipPath><clipPath id="47"><path id="" clip-rule="evenodd" transform="matrix(1 0 0 1 0 0)" d="M-1.9896E-05 840.9998L595.32 840.9998L595.32 840.9998L595.32 -0.9202271L595.32 -0.9202271L-1.9896E-05 -0.9202271z" /></clipPath><clipPath id="48"><path id="" clip-rule="evenodd" transform="matrix(1 0 0 1 0 0)" d="M1.123E-06 -0.9199829L595.32 -0.9199829L595.32 -0.9199829L595.32 840.9999L595.32 840.9999L1.123E-06 840.9999" /></clipPath><clipPath id="49"><path id="" clip-rule="evenodd" transform="matrix(1 0 0 1 0 0)" d="M-2.253E-05 -0.9199829L595.32 -0.9199829L595.32 -0.9199829L595.32 840.9999L595.32 840.9999L-2.253E-05 840.9999" /></clipPath><clipPath id="50"><path id="" clip-rule="evenodd" transform="matrix(1 0 0 1 0 0)" d="M40.8 238.98L567.58 238.98L567.58 238.98L567.58 121.5L567.58 121.5L40.8 121.5z" /></clipPath><clipPath id="51"><path id="" clip-rule="evenodd" transform="matrix(1 0 0 1 0 0)" d="M40.8 238.98L567.58 238.98L567.58 238.98L567.58 121.5L567.58 121.5L40.8 121.5z" /></clipPath><clipPath id="52"><path id="" clip-rule="evenodd" transform="matrix(1 0 0 1 0 0)" d="M40.8 238.98L567.58 238.98L567.58 238.98L567.58 121.5L567.58 121.5L40.8 121.5z" /></clipPath><clipPath id="53"><path id="" clip-rule="evenodd" transform="matrix(1 0 0 1 0 0)" d="M40.8 238.98L567.58 238.98L567.58 238.98L567.58 121.5L567.58 121.5L40.8 121.5z" /></clipPath><clipPath id="54"><path id="" clip-rule="evenodd" transform="matrix(1 0 0 1 0 0)" d="M40.8 238.98L567.58 238.98L567.58 238.98L567.58 121.5L567.58 121.5L40.8 121.5z" /></clipPath><clipPath id="55"><path id="" clip-rule="evenodd" transform="matrix(1 0 0 1 0 0)" d="M40.8 238.98L567.58 238.98L567.58 238.98L567.58 121.5L567.58 121.5L40.8 121.5z" /></clipPath><clipPath id="56"><path id="" clip-rule="evenodd" transform="matrix(1 0 0 1 0 0)" d="M40.8 238.98L567.58 238.98L567.58 238.98L567.58 121.5L567.58 121.5L40.8 121.5z" /></clipPath><clipPath id="57"><path id="" clip-rule="evenodd" transform="matrix(1 0 0 1 0 0)" d="M40.8 238.98L567.58 238.98L567.58 238.98L567.58 121.5L567.58 121.5L40.8 121.5z" /></clipPath><clipPath id="58"><path id="" clip-rule="evenodd" transform="matrix(1 0 0 1 0 0)" d="M40.8 238.98L567.58 238.98L567.58 238.98L567.58 121.5L567.58 121.5L40.8 121.5z" /></clipPath><clipPath id="59"><path id="" clip-rule="evenodd" transform="matrix(1 0 0 1 0 0)" d="M40.8 238.98L567.58 238.98L567.58 238.98L567.58 121.5L567.58 121.5L40.8 121.5z" /></clipPath><clipPath id="60"><path id="" clip-rule="evenodd" transform="matrix(1 0 0 1 0 0)" d="M40.8 238.98L567.58 238.98L567.58 238.98L567.58 121.5L567.58 121.5L40.8 121.5z" /></clipPath><clipPath id="61"><path id="" clip-rule="evenodd" transform="matrix(1 0 0 1 0 0)" d="M40.8 238.98L567.58 238.98L567.58 238.98L567.58 121.5L567.58 121.5L40.8 121.5z" /></clipPath><clipPath id="62"><path id="" clip-rule="evenodd" transform="matrix(1 0 0 1 0 0)" d="M40.8 238.98L567.58 238.98L567.58 238.98L567.58 121.5L567.58 121.5L40.8 121.5z" /></clipPath><clipPath id="63"><path id="" clip-rule="evenodd" transform="matrix(1 0 0 1 0 0)" d="M40.8 238.98L567.58 238.98L567.58 238.98L567.58 121.5L567.58 121.5L40.8 121.5z" /></clipPath><clipPath id="64"><path id="" clip-rule="evenodd" transform="matrix(1 0 0 1 0 0)" d="M40.8 238.98L567.58 238.98L567.58 238.98L567.58 121.5L567.58 121.5L40.8 121.5z" /></clipPath><clipPath id="65"><path id="" clip-rule="evenodd" transform="matrix(1 0 0 1 0 0)" d="M40.8 238.98L567.58 238.98L567.58 238.98L567.58 121.5L567.58 121.5L40.8 121.5z" /></clipPath><clipPath id="66"><path id="" clip-rule="evenodd" transform="matrix(1 0 0 1 0 0)" d="M40.8 238.98L567.58 238.98L567.58 238.98L567.58 121.5L567.58 121.5L40.8 121.5z" /></clipPath><clipPath id="67"><path id="" clip-rule="evenodd" transform="matrix(1 0 0 1 0 0)" d="M5.447E-06 840.9997L595.32 840.9997L595.32 840.9997L595.32 -0.9202881L595.32 -0.9202881L5.447E-06 -0.9202881z" /></clipPath></defs><g transform="matrix(1.333333 0 0 1.333333 0 0)"><g clip-path="url(#1)"><g clip-path="url(#2)"></g><g clip-path="url(#3)"></g><g clip-path="url(#4)"><path id="1" transform="matrix(1 0 0 -1 0 841)" d="M0.75 767.32L598.5 767.32L598.5 767.32L598.5 841.17L598.5 841.17L0.75 841.17z" stroke="none" fill="#203864" fill-rule="evenodd" /></g><g clip-path="url(#5)"><path id="2" transform="matrix(1 0 0 -1 0 841)" d="M0.75 767.32L598.5 767.32L598.5 767.32L598.5 841.17L598.5 841.17L0.75 841.17z" stroke="#548235" stroke-width="0.75" fill="none" /></g><g clip-path="url(#6)"><g clip-path="url(#7)"></g><g clip-path="url(#8)"></g><g clip-path="url(#9)"></g><g clip-path="url(#10)"></g><g clip-path="url(#11)"></g><g clip-path="url(#12)"></g><g clip-path="url(#13)"></g><g clip-path="url(#14)"></g><g clip-path="url(#15)"></g><g clip-path="url(#16)"></g></g><path id="45" transform="matrix(1 0 0 -1 0 841)" d="M39 214.92L566.25 214.92L566.25 214.92L566.25 368.67L566.25 368.67L39 368.67z" stroke="none" fill="#FFFFFF" fill-rule="evenodd" /><path id="46" transform="matrix(1 0 0 -1 0 841)" d="M39 214.92L566.25 214.92L566.25 214.92L566.25 368.67L566.25 368.67L39 368.67z" stroke="#7C7C7C" stroke-width="0.5" fill="none" /><g clip-path="url(#17)"><g clip-path="url(#18)"></g><g clip-path="url(#19)"></g><g clip-path="url(#20)"></g><g clip-path="url(#21)"></g><g clip-path="url(#22)"></g><g clip-path="url(#23)"></g><g clip-path="url(#24)"></g><g clip-path="url(#25)"></g><g clip-path="url(#26)"></g><g clip-path="url(#27)"></g><g clip-path="url(#28)"></g><g clip-path="url(#29)"></g><g clip-path="url(#30)"></g><g clip-path="url(#31)"></g><g clip-path="url(#32)"></g><g clip-path="url(#33)"></g><g clip-path="url(#34)"></g><g clip-path="url(#35)"></g><g clip-path="url(#36)"></g><g clip-path="url(#37)"></g></g><path id="816" transform="matrix(1 0 0 -1 0 841)" d="M39.65 378.42L566.15 378.42L566.15 378.42L566.15 404.67L566.15 404.67L39.65 404.67z" stroke="none" fill="#C00000" fill-rule="evenodd" /><g clip-path="url(#38)"><g clip-path="url(#39)"></g><g clip-path="url(#40)"></g></g><path id="828" transform="matrix(1 0 0 -1 0 841)" d="M39.75 733.17L566.25 733.17L566.25 733.17L566.25 759.42L566.25 759.42L39.75 759.42z" stroke="none" fill="#C00000" fill-rule="evenodd" /><g clip-path="url(#41)"><g clip-path="url(#42)"></g><g clip-path="url(#43)"></g></g><g clip-path="url(#44)"><g transform="matrix(0.3267892 0 0 0.3267168 213 251.83)"><g transform="matrix(1 0 0 1 0 0)"><image x="0" y="0" xlink:href="img_27.png" width="517" height="466" /></g></g></g><g clip-path="url(#45)"><g transform="matrix(0.2963974 0 0 0.2691076 57 267.03)"><g transform="matrix(1 0 0 1 0 0)"><image x="0" y="0" xlink:href="img_28.png" width="458" height="437" /></g></g></g><g clip-path="url(#46)"><g transform="matrix(0.3704601 0 0 0.3706731 395.25 254.83)"><g transform="matrix(1 0 0 1 0 0)"><image x="0" y="0" xlink:href="img_29.png" width="413" height="416" /></g></g></g><g clip-path="url(#47)"><g transform="matrix(0.4530717 0 0 0.4530259 275.25 639.08)"><g transform="matrix(1 0 0 1 0 0)"><image x="0" y="0" xlink:href="img_30.png" width="293" height="347" /></g></g></g><g clip-path="url(#48)"><g transform="matrix(0 0.366 -0.4242291 0 145.05 635.88)"><g transform="matrix(1 0 0 1 0 0)"><image x="0" y="0" xlink:href="img_31.png" width="425" height="227" /></g></g></g><g clip-path="url(#49)"><g transform="matrix(0 0.3866324 -0.4470732 0 249.65 641.13)"><g transform="matrix(1 0 0 1 0 0)"><image x="0" y="0" xlink:href="img_32.png" width="389" height="205" /></g></g></g><path id="872" transform="matrix(1 0 0 -1 0 841)" d="M40.5 598.17L567.75 598.17L567.75 598.17L567.75 723.42L567.75 723.42L40.5 723.42z" stroke="none" fill="#FFFFFF" fill-rule="evenodd" /><path id="873" transform="matrix(1 0 0 -1 0 841)" d="M40.5 598.17L567.75 598.17L567.75 598.17L567.75 723.42L567.75 723.42L40.5 723.42z" stroke="#7C7C7C" stroke-width="0.5" fill="none" /><g clip-path="url(#50)"><g clip-path="url(#51)"></g><g clip-path="url(#52)"></g><g clip-path="url(#53)"></g><g clip-path="url(#54)"></g><g clip-path="url(#55)"></g><g clip-path="url(#56)"></g><g clip-path="url(#57)"></g><g clip-path="url(#58)"></g><g clip-path="url(#59)"></g><g clip-path="url(#60)"></g><g clip-path="url(#61)"></g><g clip-path="url(#62)"></g><g clip-path="url(#63)"></g><g clip-path="url(#64)"></g><g clip-path="url(#65)"></g><g clip-path="url(#66)"></g></g><g clip-path="url(#67)"><g transform="matrix(0.4489426 0 0 0.4489362 413.9 640.332)"><g transform="matrix(1 0 0 1 0 0)"><image x="0" y="0" xlink:href="img_33.png" width="331" height="329" /></g></g></g></g></g></svg>