<svg xmlns="http://www.w3.org/2000/svg" xmlns:xlink="http://www.w3.org/1999/xlink" id="body_7" preserveAspectRatio="xMinYMin meet" viewBox="0 0 793 1121"><defs><clipPath id="1"><path id="" clip-rule="evenodd" transform="matrix(1 0 0 1 0 0)" d="M0 841L0 -0.9199829L0 -0.9199829L595.32 -0.9199829L595.32 -0.9199829L595.32 841L595.32 841L0 841z" /></clipPath><clipPath id="2"><path id="" clip-rule="evenodd" transform="matrix(1 0 0 1 0 0)" d="M8.871E-06 841L595.32 841L595.32 841L595.32 -0.9199829L595.32 -0.9199829L8.871E-06 -0.9199829z" /></clipPath><clipPath id="3"><path id="" clip-rule="evenodd" transform="matrix(1 0 0 1 0 0)" d="M8.871E-06 841L595.32 841L595.32 841L595.32 -0.9199829L595.32 -0.9199829L8.871E-06 -0.9199829z" /></clipPath><clipPath id="4"><path id="" clip-rule="evenodd" transform="matrix(1 0 0 1 0 0)" d="M8.871E-06 841L595.32 841L595.32 841L595.32 -0.9199829L595.32 -0.9199829L8.871E-06 -0.9199829z" /></clipPath><clipPath id="5"><path id="" clip-rule="evenodd" transform="matrix(1 0 0 1 0 0)" d="M8.871E-06 841L595.32 841L595.32 841L595.32 -0.9199829L595.32 -0.9199829L8.871E-06 -0.9199829z" /></clipPath><clipPath id="6"><path id="" clip-rule="evenodd" transform="matrix(1 0 0 1 0 0)" d="M8.871E-06 841L595.32 841L595.32 841L595.32 -0.9199829L595.32 -0.9199829L8.871E-06 -0.9199829z" /></clipPath><clipPath id="7"><path id="" clip-rule="evenodd" transform="matrix(1 0 0 1 0 0)" d="M8.871E-06 841L595.32 841L595.32 841L595.32 -0.9199829L595.32 -0.9199829L8.871E-06 -0.9199829z" /></clipPath><clipPath id="8"><path id="" clip-rule="evenodd" transform="matrix(1 0 0 1 0 0)" d="M-1.087E-06 840.9998L595.32 840.9998L595.32 840.9998L595.32 -0.9202271L595.32 -0.9202271L-1.087E-06 -0.9202271z" /></clipPath><clipPath id="9"><path id="" clip-rule="evenodd" transform="matrix(1 0 0 1 0 0)" d="M-1.2197E-05 840.9998L595.32 840.9998L595.32 840.9998L595.32 -0.9202271L595.32 -0.9202271L-1.2197E-05 -0.9202271z" /></clipPath><clipPath id="10"><path id="" clip-rule="evenodd" transform="matrix(1 0 0 1 0 0)" d="M32.52 111.42L558.58 111.42L558.58 111.42L558.58 92.94L558.58 92.94L32.52 92.94z" /></clipPath><clipPath id="11"><path id="" clip-rule="evenodd" transform="matrix(1 0 0 1 0 0)" d="M32.52 111.42L558.58 111.42L558.58 111.42L558.58 92.94L558.58 92.94L32.52 92.94z" /></clipPath><clipPath id="12"><path id="" clip-rule="evenodd" transform="matrix(1 0 0 1 0 0)" d="M32.52 111.42L558.58 111.42L558.58 111.42L558.58 92.94L558.58 92.94L32.52 92.94z" /></clipPath><clipPath id="13"><path id="" clip-rule="evenodd" transform="matrix(1 0 0 1 0 0)" d="M0 840.9997L595.32 840.9997L595.32 840.9997L595.32 -0.9202881L595.32 -0.9202881L0 -0.9202881z" /></clipPath><clipPath id="14"><path id="" clip-rule="evenodd" transform="matrix(1 0 0 1 0 0)" d="M0 840.9997L595.32 840.9997L595.32 840.9997L595.32 -0.9202881L595.32 -0.9202881L0 -0.9202881z" /></clipPath><clipPath id="15"><path id="" clip-rule="evenodd" transform="matrix(1 0 0 1 0 0)" d="M0.36001 68.91998L595.32 68.91998L595.32 68.91998L595.32 2.919983L595.32 2.919983L0.36001 2.919983z" /></clipPath><clipPath id="16"><path id="" clip-rule="evenodd" transform="matrix(1 0 0 1 0 0)" d="M0.36 68.91998L597.48 68.91998L597.48 68.91998L597.48 2.919983L597.48 2.919983L0.36 2.919983z" /></clipPath><clipPath id="17"><path id="" clip-rule="evenodd" transform="matrix(1 0 0 1 0 0)" d="M0.36 68.91998L597.48 68.91998L597.48 68.91998L597.48 2.919983L597.48 2.919983L0.36 2.919983z" /></clipPath><clipPath id="18"><path id="" clip-rule="evenodd" transform="matrix(1 0 0 1 0 0)" d="M0.36 68.91998L597.48 68.91998L597.48 68.91998L597.48 2.919983L597.48 2.919983L0.36 2.919983z" /></clipPath><clipPath id="19"><path id="" clip-rule="evenodd" transform="matrix(1 0 0 1 0 0)" d="M0.36 68.91998L597.48 68.91998L597.48 68.91998L597.48 2.919983L597.48 2.919983L0.36 2.919983z" /></clipPath><clipPath id="20"><path id="" clip-rule="evenodd" transform="matrix(1 0 0 1 0 0)" d="M0.36 68.91998L597.48 68.91998L597.48 68.91998L597.48 2.919983L597.48 2.919983L0.36 2.919983z" /></clipPath><clipPath id="21"><path id="" clip-rule="evenodd" transform="matrix(1 0 0 1 0 0)" d="M0.36 68.91998L597.48 68.91998L597.48 68.91998L597.48 2.919983L597.48 2.919983L0.36 2.919983z" /></clipPath><clipPath id="22"><path id="" clip-rule="evenodd" transform="matrix(1 0 0 1 0 0)" d="M0.36 68.91998L597.48 68.91998L597.48 68.91998L597.48 2.919983L597.48 2.919983L0.36 2.919983z" /></clipPath><clipPath id="23"><path id="" clip-rule="evenodd" transform="matrix(1 0 0 1 0 0)" d="M0.36 68.91998L597.48 68.91998L597.48 68.91998L597.48 2.919983L597.48 2.919983L0.36 2.919983z" /></clipPath><clipPath id="24"><path id="" clip-rule="evenodd" transform="matrix(1 0 0 1 0 0)" d="M0.36 68.91998L597.48 68.91998L597.48 68.91998L597.48 2.919983L597.48 2.919983L0.36 2.919983z" /></clipPath><clipPath id="25"><path id="" clip-rule="evenodd" transform="matrix(1 0 0 1 0 0)" d="M0.36 68.91998L597.48 68.91998L597.48 68.91998L597.48 2.919983L597.48 2.919983L0.36 2.919983z" /></clipPath><clipPath id="26"><path id="" clip-rule="evenodd" transform="matrix(1 0 0 1 0 0)" d="M33.24 554.75L559.3 554.75L559.3 554.75L559.3 520.55L559.3 520.55L33.24 520.55z" /></clipPath><clipPath id="27"><path id="" clip-rule="evenodd" transform="matrix(1 0 0 1 0 0)" d="M33.24 554.75L559.3 554.75L559.3 554.75L559.3 520.55L559.3 520.55L33.24 520.55z" /></clipPath><clipPath id="28"><path id="" clip-rule="evenodd" transform="matrix(1 0 0 1 0 0)" d="M33.24 554.75L559.3 554.75L559.3 554.75L559.3 520.55L559.3 520.55L33.24 520.55z" /></clipPath><clipPath id="29"><path id="" clip-rule="evenodd" transform="matrix(1 0 0 1 0 0)" d="M33.24 554.75L559.3 554.75L559.3 554.75L559.3 520.55L559.3 520.55L33.24 520.55z" /></clipPath><clipPath id="30"><path id="" clip-rule="evenodd" transform="matrix(1 0 0 1 0 0)" d="M33.24 554.75L559.3 554.75L559.3 554.75L559.3 520.55L559.3 520.55L33.24 520.55z" /></clipPath><clipPath id="31"><path id="" clip-rule="evenodd" transform="matrix(1 0 0 1 0 0)" d="M33.24 554.75L559.3 554.75L559.3 554.75L559.3 520.55L559.3 520.55L33.24 520.55z" /></clipPath><clipPath id="32"><path id="" clip-rule="evenodd" transform="matrix(1 0 0 1 0 0)" d="M33.24 554.75L559.3 554.75L559.3 554.75L559.3 520.55L559.3 520.55L33.24 520.55z" /></clipPath><clipPath id="33"><path id="" clip-rule="evenodd" transform="matrix(1 0 0 1 0 0)" d="M33.24 554.75L559.3 554.75L559.3 554.75L559.3 520.55L559.3 520.55L33.24 520.55z" /></clipPath><clipPath id="34"><path id="" clip-rule="evenodd" transform="matrix(1 0 0 1 0 0)" d="M33.24 554.75L559.3 554.75L559.3 554.75L559.3 520.55L559.3 520.55L33.24 520.55z" /></clipPath><clipPath id="35"><path id="" clip-rule="evenodd" transform="matrix(1 0 0 1 0 0)" d="M33.24 554.75L559.3 554.75L559.3 554.75L559.3 520.55L559.3 520.55L33.24 520.55z" /></clipPath><clipPath id="36"><path id="" clip-rule="evenodd" transform="matrix(1 0 0 1 0 0)" d="M33.24 554.75L559.3 554.75L559.3 554.75L559.3 520.55L559.3 520.55L33.24 520.55z" /></clipPath><clipPath id="37"><path id="" clip-rule="evenodd" transform="matrix(1 0 0 1 0 0)" d="M33.24 554.75L559.3 554.75L559.3 554.75L559.3 520.55L559.3 520.55L33.24 520.55z" /></clipPath><clipPath id="38"><path id="" clip-rule="evenodd" transform="matrix(1 0 0 1 0 0)" d="M33.24 554.75L559.3 554.75L559.3 554.75L559.3 520.55L559.3 520.55L33.24 520.55z" /></clipPath><clipPath id="39"><path id="" clip-rule="evenodd" transform="matrix(1 0 0 1 0 0)" d="M33.24 554.75L559.3 554.75L559.3 554.75L559.3 520.55L559.3 520.55L33.24 520.55z" /></clipPath><clipPath id="40"><path id="" clip-rule="evenodd" transform="matrix(1 0 0 1 0 0)" d="M33.24 554.75L559.3 554.75L559.3 554.75L559.3 520.55L559.3 520.55L33.24 520.55z" /></clipPath><clipPath id="41"><path id="" clip-rule="evenodd" transform="matrix(1 0 0 1 0 0)" d="M33.24 554.75L559.3 554.75L559.3 554.75L559.3 520.55L559.3 520.55L33.24 520.55z" /></clipPath><clipPath id="42"><path id="" clip-rule="evenodd" transform="matrix(1 0 0 1 0 0)" d="M33.24 554.75L559.3 554.75L559.3 554.75L559.3 520.55L559.3 520.55L33.24 520.55z" /></clipPath><clipPath id="43"><path id="" clip-rule="evenodd" transform="matrix(1 0 0 1 0 0)" d="M33.24 554.75L559.3 554.75L559.3 554.75L559.3 520.55L559.3 520.55L33.24 520.55z" /></clipPath><clipPath id="44"><path id="" clip-rule="evenodd" transform="matrix(1 0 0 1 0 0)" d="M33.24 554.75L559.3 554.75L559.3 554.75L559.3 520.55L559.3 520.55L33.24 520.55z" /></clipPath><clipPath id="45"><path id="" clip-rule="evenodd" transform="matrix(1 0 0 1 0 0)" d="M33.24 554.75L559.3 554.75L559.3 554.75L559.3 520.55L559.3 520.55L33.24 520.55z" /></clipPath><clipPath id="46"><path id="" clip-rule="evenodd" transform="matrix(1 0 0 1 0 0)" d="M33.24 554.75L559.3 554.75L559.3 554.75L559.3 520.55L559.3 520.55L33.24 520.55z" /></clipPath><clipPath id="47"><path id="" clip-rule="evenodd" transform="matrix(1 0 0 1 0 0)" d="M33.24 554.75L559.3 554.75L559.3 554.75L559.3 520.55L559.3 520.55L33.24 520.55z" /></clipPath><clipPath id="48"><path id="" clip-rule="evenodd" transform="matrix(1 0 0 1 0 0)" d="M33.24 226.26L558.58 226.26L558.58 226.26L558.58 125.22L558.58 125.22L33.24 125.22z" /></clipPath><clipPath id="49"><path id="" clip-rule="evenodd" transform="matrix(1 0 0 1 0 0)" d="M33.24 226.26L558.58 226.26L558.58 226.26L558.58 125.22L558.58 125.22L33.24 125.22z" /></clipPath><clipPath id="50"><path id="" clip-rule="evenodd" transform="matrix(1 0 0 1 0 0)" d="M33.24 226.26L558.58 226.26L558.58 226.26L558.58 125.22L558.58 125.22L33.24 125.22z" /></clipPath><clipPath id="51"><path id="" clip-rule="evenodd" transform="matrix(1 0 0 1 0 0)" d="M33.24 226.26L558.58 226.26L558.58 226.26L558.58 125.22L558.58 125.22L33.24 125.22z" /></clipPath><clipPath id="52"><path id="" clip-rule="evenodd" transform="matrix(1 0 0 1 0 0)" d="M33.24 226.26L558.58 226.26L558.58 226.26L558.58 125.22L558.58 125.22L33.24 125.22z" /></clipPath><clipPath id="53"><path id="" clip-rule="evenodd" transform="matrix(1 0 0 1 0 0)" d="M33.24 226.26L558.58 226.26L558.58 226.26L558.58 125.22L558.58 125.22L33.24 125.22z" /></clipPath><clipPath id="54"><path id="" clip-rule="evenodd" transform="matrix(1 0 0 1 0 0)" d="M33.24 226.26L558.58 226.26L558.58 226.26L558.58 125.22L558.58 125.22L33.24 125.22z" /></clipPath><clipPath id="55"><path id="" clip-rule="evenodd" transform="matrix(1 0 0 1 0 0)" d="M33.24 226.26L558.58 226.26L558.58 226.26L558.58 125.22L558.58 125.22L33.24 125.22z" /></clipPath><clipPath id="56"><path id="" clip-rule="evenodd" transform="matrix(1 0 0 1 0 0)" d="M33.24 226.26L558.58 226.26L558.58 226.26L558.58 125.22L558.58 125.22L33.24 125.22z" /></clipPath><clipPath id="57"><path id="" clip-rule="evenodd" transform="matrix(1 0 0 1 0 0)" d="M33.24 226.26L558.58 226.26L558.58 226.26L558.58 125.22L558.58 125.22L33.24 125.22z" /></clipPath><clipPath id="58"><path id="" clip-rule="evenodd" transform="matrix(1 0 0 1 0 0)" d="M33.24 226.26L558.58 226.26L558.58 226.26L558.58 125.22L558.58 125.22L33.24 125.22z" /></clipPath><clipPath id="59"><path id="" clip-rule="evenodd" transform="matrix(1 0 0 1 0 0)" d="M33.24 226.26L558.58 226.26L558.58 226.26L558.58 125.22L558.58 125.22L33.24 125.22z" /></clipPath><clipPath id="60"><path id="" clip-rule="evenodd" transform="matrix(1 0 0 1 0 0)" d="M33.24 226.26L558.58 226.26L558.58 226.26L558.58 125.22L558.58 125.22L33.24 125.22z" /></clipPath><clipPath id="61"><path id="" clip-rule="evenodd" transform="matrix(1 0 0 1 0 0)" d="M33.24 226.26L558.58 226.26L558.58 226.26L558.58 125.22L558.58 125.22L33.24 125.22z" /></clipPath><clipPath id="62"><path id="" clip-rule="evenodd" transform="matrix(1 0 0 1 0 0)" d="M33.24 226.26L558.58 226.26L558.58 226.26L558.58 125.22L558.58 125.22L33.24 125.22z" /></clipPath><clipPath id="63"><path id="" clip-rule="evenodd" transform="matrix(1 0 0 1 0 0)" d="M33.24 226.26L558.58 226.26L558.58 226.26L558.58 125.22L558.58 125.22L33.24 125.22z" /></clipPath><clipPath id="64"><path id="" clip-rule="evenodd" transform="matrix(1 0 0 1 0 0)" d="M33.24 226.26L558.58 226.26L558.58 226.26L558.58 125.22L558.58 125.22L33.24 125.22z" /></clipPath><clipPath id="65"><path id="" clip-rule="evenodd" transform="matrix(1 0 0 1 0 0)" d="M33.24 226.26L558.58 226.26L558.58 226.26L558.58 125.22L558.58 125.22L33.24 125.22z" /></clipPath><clipPath id="66"><path id="" clip-rule="evenodd" transform="matrix(1 0 0 1 0 0)" d="M33.24 226.26L558.58 226.26L558.58 226.26L558.58 125.22L558.58 125.22L33.24 125.22z" /></clipPath><clipPath id="67"><path id="" clip-rule="evenodd" transform="matrix(1 0 0 1 0 0)" d="M33.24 226.26L558.58 226.26L558.58 226.26L558.58 125.22L558.58 125.22L33.24 125.22z" /></clipPath><clipPath id="68"><path id="" clip-rule="evenodd" transform="matrix(1 0 0 1 0 0)" d="M33.24 226.26L558.58 226.26L558.58 226.26L558.58 125.22L558.58 125.22L33.24 125.22z" /></clipPath><clipPath id="69"><path id="" clip-rule="evenodd" transform="matrix(1 0 0 1 0 0)" d="M33.24 226.26L558.58 226.26L558.58 226.26L558.58 125.22L558.58 125.22L33.24 125.22z" /></clipPath><clipPath id="70"><path id="" clip-rule="evenodd" transform="matrix(1 0 0 1 0 0)" d="M33.24 226.26L558.58 226.26L558.58 226.26L558.58 125.22L558.58 125.22L33.24 125.22z" /></clipPath><clipPath id="71"><path id="" clip-rule="evenodd" transform="matrix(1 0 0 1 0 0)" d="M33.24 226.26L558.58 226.26L558.58 226.26L558.58 125.22L558.58 125.22L33.24 125.22z" /></clipPath><clipPath id="72"><path id="" clip-rule="evenodd" transform="matrix(1 0 0 1 0 0)" d="M33.24 226.26L558.58 226.26L558.58 226.26L558.58 125.22L558.58 125.22L33.24 125.22z" /></clipPath><clipPath id="73"><path id="" clip-rule="evenodd" transform="matrix(1 0 0 1 0 0)" d="M35.52 766.36L401.83 766.36L401.83 766.36L401.83 641.3L401.83 641.3L35.52 641.3z" /></clipPath><clipPath id="74"><path id="" clip-rule="evenodd" transform="matrix(1 0 0 1 0 0)" d="M35.52 766.36L401.83 766.36L401.83 766.36L401.83 641.3L401.83 641.3L35.52 641.3z" /></clipPath><clipPath id="75"><path id="" clip-rule="evenodd" transform="matrix(1 0 0 1 0 0)" d="M35.52 766.36L401.83 766.36L401.83 766.36L401.83 641.3L401.83 641.3L35.52 641.3z" /></clipPath><clipPath id="76"><path id="" clip-rule="evenodd" transform="matrix(1 0 0 1 0 0)" d="M35.52 766.36L401.83 766.36L401.83 766.36L401.83 641.3L401.83 641.3L35.52 641.3z" /></clipPath><clipPath id="77"><path id="" clip-rule="evenodd" transform="matrix(1 0 0 1 0 0)" d="M35.52 766.36L401.83 766.36L401.83 766.36L401.83 641.3L401.83 641.3L35.52 641.3z" /></clipPath><clipPath id="78"><path id="" clip-rule="evenodd" transform="matrix(1 0 0 1 0 0)" d="M35.52 766.36L401.83 766.36L401.83 766.36L401.83 641.3L401.83 641.3L35.52 641.3z" /></clipPath><clipPath id="79"><path id="" clip-rule="evenodd" transform="matrix(1 0 0 1 0 0)" d="M35.52 766.36L401.83 766.36L401.83 766.36L401.83 641.3L401.83 641.3L35.52 641.3z" /></clipPath><clipPath id="80"><path id="" clip-rule="evenodd" transform="matrix(1 0 0 1 0 0)" d="M35.52 766.36L401.83 766.36L401.83 766.36L401.83 641.3L401.83 641.3L35.52 641.3z" /></clipPath><clipPath id="81"><path id="" clip-rule="evenodd" transform="matrix(1 0 0 1 0 0)" d="M35.52 766.36L401.83 766.36L401.83 766.36L401.83 641.3L401.83 641.3L35.52 641.3z" /></clipPath><clipPath id="82"><path id="" clip-rule="evenodd" transform="matrix(1 0 0 1 0 0)" d="M35.52 766.36L401.83 766.36L401.83 766.36L401.83 641.3L401.83 641.3L35.52 641.3z" /></clipPath><clipPath id="83"><path id="" clip-rule="evenodd" transform="matrix(1 0 0 1 0 0)" d="M35.52 766.36L401.83 766.36L401.83 766.36L401.83 641.3L401.83 641.3L35.52 641.3z" /></clipPath><clipPath id="84"><path id="" clip-rule="evenodd" transform="matrix(1 0 0 1 0 0)" d="M35.52 766.36L401.83 766.36L401.83 766.36L401.83 641.3L401.83 641.3L35.52 641.3z" /></clipPath><clipPath id="85"><path id="" clip-rule="evenodd" transform="matrix(1 0 0 1 0 0)" d="M35.52 766.36L401.83 766.36L401.83 766.36L401.83 641.3L401.83 641.3L35.52 641.3z" /></clipPath><clipPath id="86"><path id="" clip-rule="evenodd" transform="matrix(1 0 0 1 0 0)" d="M34.68 624.5L560.74 624.5L560.74 624.5L560.74 606.02L560.74 606.02L34.68 606.02z" /></clipPath><clipPath id="87"><path id="" clip-rule="evenodd" transform="matrix(1 0 0 1 0 0)" d="M34.68 624.5L560.74 624.5L560.74 624.5L560.74 606.02L560.74 606.02L34.68 606.02z" /></clipPath><clipPath id="88"><path id="" clip-rule="evenodd" transform="matrix(1 0 0 1 0 0)" d="M34.68 624.5L560.74 624.5L560.74 624.5L560.74 606.02L560.74 606.02L34.68 606.02z" /></clipPath><clipPath id="89"><path id="" clip-rule="evenodd" transform="matrix(1 0 0 1 0 0)" d="M-1.6787E-05 840.9998L595.32 840.9998L595.32 840.9998L595.32 -0.9202271L595.32 -0.9202271L-1.6787E-05 -0.9202271z" /></clipPath><clipPath id="90"><path id="" clip-rule="evenodd" transform="matrix(1 0 0 1 0 0)" d="M-2.473E-06 840.9998L595.32 840.9998L595.32 840.9998L595.32 -0.9202271L595.32 -0.9202271L-2.473E-06 -0.9202271z" /></clipPath><clipPath id="91"><path id="" clip-rule="evenodd" transform="matrix(1 0 0 1 0 0)" d="M-9.148E-06 840.9998L595.32 840.9998L595.32 840.9998L595.32 -0.920166L595.32 -0.920166L-9.148E-06 -0.920166z" /></clipPath><clipPath id="92"><path id="" clip-rule="evenodd" transform="matrix(1 0 0 1 0 0)" d="M1.707E-06 840.9998L595.32 840.9998L595.32 840.9998L595.32 -0.9202271L595.32 -0.9202271L1.707E-06 -0.9202271z" /></clipPath><clipPath id="93"><path id="" clip-rule="evenodd" transform="matrix(1 0 0 1 0 0)" d="M-2.1321E-05 840.9997L595.32 840.9997L595.32 840.9997L595.32 -0.9202881L595.32 -0.9202881L-2.1321E-05 -0.9202881z" /></clipPath></defs><g transform="matrix(1.333333 0 0 1.333333 0 0)"><g clip-path="url(#1)"><g clip-path="url(#2)"></g><g clip-path="url(#3)"></g><g clip-path="url(#4)"></g><g clip-path="url(#5)"></g><g clip-path="url(#6)"></g><g clip-path="url(#7)"></g><g clip-path="url(#8)"><g transform="matrix(-0.2692308 0 0 0.2780193 159 371.04)"><g transform="matrix(1 0 0 1 0 0)"><image x="0" y="0" xlink:href="img_35.png" width="429" height="414" /></g></g></g><g clip-path="url(#9)"><g transform="matrix(0.3614754 0 0 0.3606203 468.15 319.343)"><g transform="matrix(1 0 0 1 0 0)"><image x="0" y="0" xlink:href="img_36.png" width="244" height="237" /></g></g></g><path id="3" transform="matrix(1 0 0 -1 0 841)" d="M32.25 725.72L558.75 725.72L558.75 725.72L558.75 751.97L558.75 751.97L32.25 751.97z" stroke="none" fill="#C00000" fill-rule="evenodd" /><g clip-path="url(#10)"><g clip-path="url(#11)"></g><g clip-path="url(#12)"></g></g><g clip-path="url(#13)"><path id="33" transform="matrix(1 0 0 -1 0 841)" d="M0 768.17L597.75 768.17L597.75 768.17L597.75 842.02L597.75 842.02L0 842.02z" stroke="none" fill="#203864" fill-rule="evenodd" /></g><g clip-path="url(#14)"><path id="34" transform="matrix(1 0 0 -1 0 841)" d="M0 768.17L597.75 768.17L597.75 768.17L597.75 842.02L597.75 842.02L0 842.02z" stroke="#548235" stroke-width="0.75" fill="none" /></g><g clip-path="url(#15)"><g clip-path="url(#16)"></g><g clip-path="url(#17)"></g><g clip-path="url(#18)"></g><g clip-path="url(#19)"></g><g clip-path="url(#20)"></g><g clip-path="url(#21)"></g><g clip-path="url(#22)"></g><g clip-path="url(#23)"></g><g clip-path="url(#24)"></g><g clip-path="url(#25)"></g></g><path id="77" transform="matrix(1 0 0 -1 0 841)" d="M33 282.41L559.5 282.41L559.5 282.41L559.5 324.41L559.5 324.41L33 324.41z" stroke="none" fill="#FFFFFF" fill-rule="evenodd" /><path id="78" transform="matrix(1 0 0 -1 0 841)" d="M33 282.41L559.5 282.41L559.5 282.41L559.5 324.41L559.5 324.41L33 324.41z" stroke="#7C7C7C" stroke-width="0.5" fill="none" /><g clip-path="url(#26)"><g clip-path="url(#27)"></g><g clip-path="url(#28)"></g><g clip-path="url(#29)"></g><g clip-path="url(#30)"></g><g clip-path="url(#31)"></g><g clip-path="url(#32)"></g><g clip-path="url(#33)"></g><g clip-path="url(#34)"></g><g clip-path="url(#35)"></g><g clip-path="url(#36)"></g><g clip-path="url(#37)"></g><g clip-path="url(#38)"></g><g clip-path="url(#39)"></g><g clip-path="url(#40)"></g><g clip-path="url(#41)"></g><g clip-path="url(#42)"></g><g clip-path="url(#43)"></g><g clip-path="url(#44)"></g><g clip-path="url(#45)"></g><g clip-path="url(#46)"></g><g clip-path="url(#47)"></g></g><path id="246" transform="matrix(1 0 0 -1 0 841)" d="M33 610.93L558.75 610.93L558.75 610.93L558.75 719.68L558.75 719.68L33 719.68z" stroke="none" fill="#FFFFFF" fill-rule="evenodd" /><path id="247" transform="matrix(1 0 0 -1 0 841)" d="M33 610.93L558.75 610.93L558.75 610.93L558.75 719.68L558.75 719.68L33 719.68z" stroke="#7C7C7C" stroke-width="0.5" fill="none" /><g clip-path="url(#48)"><g clip-path="url(#49)"></g><g clip-path="url(#50)"></g><g clip-path="url(#51)"></g><g clip-path="url(#52)"></g><g clip-path="url(#53)"></g><g clip-path="url(#54)"></g><g clip-path="url(#55)"></g><g clip-path="url(#56)"></g><g clip-path="url(#57)"></g><g clip-path="url(#58)"></g><g clip-path="url(#59)"></g><g clip-path="url(#60)"></g><g clip-path="url(#61)"></g><g clip-path="url(#62)"></g><g clip-path="url(#63)"></g><g clip-path="url(#64)"></g><g clip-path="url(#65)"></g><g clip-path="url(#66)"></g><g clip-path="url(#67)"></g><g clip-path="url(#68)"></g><g clip-path="url(#69)"></g><g clip-path="url(#70)"></g><g clip-path="url(#71)"></g><g clip-path="url(#72)"></g></g><path id="772" transform="matrix(1 0 0 -1 0 841)" d="M35.25 70.907L402 70.907L402 70.907L402 203.657L402 203.657L35.25 203.657z" stroke="none" fill="#FFFFFF" fill-rule="evenodd" /><path id="773" transform="matrix(1 0 0 -1 0 841)" d="M35.25 70.907L402 70.907L402 70.907L402 203.657L402 203.657L35.25 203.657z" stroke="#7C7C7C" stroke-width="0.5" fill="none" /><g clip-path="url(#73)"><g clip-path="url(#74)"></g><g clip-path="url(#75)"></g><g clip-path="url(#76)"></g><g clip-path="url(#77)"></g><g clip-path="url(#78)"></g><g clip-path="url(#79)"></g><g clip-path="url(#80)"></g><g clip-path="url(#81)"></g><g clip-path="url(#82)"></g><g clip-path="url(#83)"></g><g clip-path="url(#84)"></g><g clip-path="url(#85)"></g></g><path id="1247" transform="matrix(1 0 0 -1 0 841)" d="M34.4 212.71L560.9 212.71L560.9 212.71L560.9 238.96L560.9 238.96L34.4 238.96z" stroke="none" fill="#C00000" fill-rule="evenodd" /><g clip-path="url(#86)"><g clip-path="url(#87)"></g><g clip-path="url(#88)"></g></g><g clip-path="url(#89)"><g transform="matrix(0.3601781 0 0 0.3602362 417.15 635.093)"><g transform="matrix(1 0 0 1 0 0)"><image x="0" y="0" xlink:href="img_37.png" width="393" height="381" /></g></g></g><g clip-path="url(#90)"><g transform="matrix(0.3350887 0 0 0.360566 33 247.34)"><g transform="matrix(1 0 0 1 0 0)"><image x="0" y="0" xlink:href="img_38.png" width="902" height="265" /></g></g></g><g clip-path="url(#91)"><g transform="matrix(0.3180782 0 0 0.3178998 325.65 362.09)"><g transform="matrix(1 0 0 1 0 0)"><image x="0" y="0" xlink:href="img_39.png" width="921" height="419" /></g></g></g><g clip-path="url(#92)"><g transform="matrix(0.364509 0 0 0.3846864 164.25 388.34)"><g transform="matrix(1 0 0 1 0 0)"><image x="0" y="0" xlink:href="img_40.png" width="448" height="271" /></g></g></g><g clip-path="url(#93)"><g transform="matrix(0.526916 0 0 0.5267974 279.75 218.09)"><g transform="matrix(1 0 0 1 0 0)"><image x="0" y="0" xlink:href="img_41.png" width="548" height="306" /></g></g></g></g></g></svg>