<svg xmlns="http://www.w3.org/2000/svg" xmlns:xlink="http://www.w3.org/1999/xlink" id="body_8" preserveAspectRatio="xMinYMin meet" viewBox="0 0 793 1121"><defs><clipPath id="1"><path id="" clip-rule="evenodd" transform="matrix(1 0 0 1 0 0)" d="M0 841L0 -0.9199829L0 -0.9199829L595.32 -0.9199829L595.32 -0.9199829L595.32 841L595.32 841L0 841z" /></clipPath><clipPath id="2"><path id="" clip-rule="evenodd" transform="matrix(1 0 0 1 0 0)" d="M8.871E-06 841L595.32 841L595.32 841L595.32 -0.9199829L595.32 -0.9199829L8.871E-06 -0.9199829z" /></clipPath><clipPath id="3"><path id="" clip-rule="evenodd" transform="matrix(1 0 0 1 0 0)" d="M8.871E-06 841L595.32 841L595.32 841L595.32 -0.9199829L595.32 -0.9199829L8.871E-06 -0.9199829z" /></clipPath><clipPath id="4"><path id="" clip-rule="evenodd" transform="matrix(1 0 0 1 0 0)" d="M34.08 818.8L569.74 818.8L569.74 818.8L569.74 627.14L569.74 627.14L34.08 627.14z" /></clipPath><clipPath id="5"><path id="" clip-rule="evenodd" transform="matrix(1 0 0 1 0 0)" d="M34.08 818.8L569.74 818.8L569.74 818.8L569.74 627.14L569.74 627.14L34.08 627.14z" /></clipPath><clipPath id="6"><path id="" clip-rule="evenodd" transform="matrix(1 0 0 1 0 0)" d="M34.08 818.8L569.74 818.8L569.74 818.8L569.74 627.14L569.74 627.14L34.08 627.14z" /></clipPath><clipPath id="7"><path id="" clip-rule="evenodd" transform="matrix(1 0 0 1 0 0)" d="M34.08 818.8L569.74 818.8L569.74 818.8L569.74 627.14L569.74 627.14L34.08 627.14z" /></clipPath><clipPath id="8"><path id="" clip-rule="evenodd" transform="matrix(1 0 0 1 0 0)" d="M34.08 818.8L569.74 818.8L569.74 818.8L569.74 627.14L569.74 627.14L34.08 627.14z" /></clipPath><clipPath id="9"><path id="" clip-rule="evenodd" transform="matrix(1 0 0 1 0 0)" d="M34.08 818.8L569.74 818.8L569.74 818.8L569.74 627.14L569.74 627.14L34.08 627.14z" /></clipPath><clipPath id="10"><path id="" clip-rule="evenodd" transform="matrix(1 0 0 1 0 0)" d="M34.08 818.8L569.74 818.8L569.74 818.8L569.74 627.14L569.74 627.14L34.08 627.14z" /></clipPath><clipPath id="11"><path id="" clip-rule="evenodd" transform="matrix(1 0 0 1 0 0)" d="M34.08 818.8L569.74 818.8L569.74 818.8L569.74 627.14L569.74 627.14L34.08 627.14z" /></clipPath><clipPath id="12"><path id="" clip-rule="evenodd" transform="matrix(1 0 0 1 0 0)" d="M34.08 818.8L569.74 818.8L569.74 818.8L569.74 627.14L569.74 627.14L34.08 627.14z" /></clipPath><clipPath id="13"><path id="" clip-rule="evenodd" transform="matrix(1 0 0 1 0 0)" d="M34.08 818.8L569.74 818.8L569.74 818.8L569.74 627.14L569.74 627.14L34.08 627.14z" /></clipPath><clipPath id="14"><path id="" clip-rule="evenodd" transform="matrix(1 0 0 1 0 0)" d="M34.08 818.8L569.74 818.8L569.74 818.8L569.74 627.14L569.74 627.14L34.08 627.14z" /></clipPath><clipPath id="15"><path id="" clip-rule="evenodd" transform="matrix(1 0 0 1 0 0)" d="M34.08 818.8L569.74 818.8L569.74 818.8L569.74 627.14L569.74 627.14L34.08 627.14z" /></clipPath><clipPath id="16"><path id="" clip-rule="evenodd" transform="matrix(1 0 0 1 0 0)" d="M34.08 818.8L569.74 818.8L569.74 818.8L569.74 627.14L569.74 627.14L34.08 627.14z" /></clipPath><clipPath id="17"><path id="" clip-rule="evenodd" transform="matrix(1 0 0 1 0 0)" d="M34.08 818.8L569.74 818.8L569.74 818.8L569.74 627.14L569.74 627.14L34.08 627.14z" /></clipPath><clipPath id="18"><path id="" clip-rule="evenodd" transform="matrix(1 0 0 1 0 0)" d="M34.08 818.8L569.74 818.8L569.74 818.8L569.74 627.14L569.74 627.14L34.08 627.14z" /></clipPath><clipPath id="19"><path id="" clip-rule="evenodd" transform="matrix(1 0 0 1 0 0)" d="M34.08 818.8L569.74 818.8L569.74 818.8L569.74 627.14L569.74 627.14L34.08 627.14z" /></clipPath><clipPath id="20"><path id="" clip-rule="evenodd" transform="matrix(1 0 0 1 0 0)" d="M34.08 818.8L569.74 818.8L569.74 818.8L569.74 627.14L569.74 627.14L34.08 627.14z" /></clipPath><clipPath id="21"><path id="" clip-rule="evenodd" transform="matrix(1 0 0 1 0 0)" d="M34.08 818.8L569.74 818.8L569.74 818.8L569.74 627.14L569.74 627.14L34.08 627.14z" /></clipPath><clipPath id="22"><path id="" clip-rule="evenodd" transform="matrix(1 0 0 1 0 0)" d="M34.08 818.8L569.74 818.8L569.74 818.8L569.74 627.14L569.74 627.14L34.08 627.14z" /></clipPath><clipPath id="23"><path id="" clip-rule="evenodd" transform="matrix(1 0 0 1 0 0)" d="M34.08 818.8L569.74 818.8L569.74 818.8L569.74 627.14L569.74 627.14L34.08 627.14z" /></clipPath><clipPath id="24"><path id="" clip-rule="evenodd" transform="matrix(1 0 0 1 0 0)" d="M34.08 818.8L569.74 818.8L569.74 818.8L569.74 627.14L569.74 627.14L34.08 627.14z" /></clipPath><clipPath id="25"><path id="" clip-rule="evenodd" transform="matrix(1 0 0 1 0 0)" d="M34.08 818.8L569.74 818.8L569.74 818.8L569.74 627.14L569.74 627.14L34.08 627.14z" /></clipPath><clipPath id="26"><path id="" clip-rule="evenodd" transform="matrix(1 0 0 1 0 0)" d="M34.08 818.8L569.74 818.8L569.74 818.8L569.74 627.14L569.74 627.14L34.08 627.14z" /></clipPath><clipPath id="27"><path id="" clip-rule="evenodd" transform="matrix(1 0 0 1 0 0)" d="M34.08 818.8L569.74 818.8L569.74 818.8L569.74 627.14L569.74 627.14L34.08 627.14z" /></clipPath><clipPath id="28"><path id="" clip-rule="evenodd" transform="matrix(1 0 0 1 0 0)" d="M34.08 818.8L569.74 818.8L569.74 818.8L569.74 627.14L569.74 627.14L34.08 627.14z" /></clipPath><clipPath id="29"><path id="" clip-rule="evenodd" transform="matrix(1 0 0 1 0 0)" d="M34.08 818.8L569.74 818.8L569.74 818.8L569.74 627.14L569.74 627.14L34.08 627.14z" /></clipPath><clipPath id="30"><path id="" clip-rule="evenodd" transform="matrix(1 0 0 1 0 0)" d="M34.08 818.8L569.74 818.8L569.74 818.8L569.74 627.14L569.74 627.14L34.08 627.14z" /></clipPath><clipPath id="31"><path id="" clip-rule="evenodd" transform="matrix(1 0 0 1 0 0)" d="M34.08 818.8L569.74 818.8L569.74 818.8L569.74 627.14L569.74 627.14L34.08 627.14z" /></clipPath><clipPath id="32"><path id="" clip-rule="evenodd" transform="matrix(1 0 0 1 0 0)" d="M0 840.9998L595.32 840.9998L595.32 840.9998L595.32 -0.9202271L595.32 -0.9202271L0 -0.9202271z" /></clipPath><clipPath id="33"><path id="" clip-rule="evenodd" transform="matrix(1 0 0 1 0 0)" d="M0 840.9998L595.32 840.9998L595.32 840.9998L595.32 -0.9202271L595.32 -0.9202271L0 -0.9202271z" /></clipPath><clipPath id="34"><path id="" clip-rule="evenodd" transform="matrix(1 0 0 1 0 0)" d="M0.36001 69.64001L595.32 69.64001L595.32 69.64001L595.32 3.640015L595.32 3.640015L0.36001 3.640015z" /></clipPath><clipPath id="35"><path id="" clip-rule="evenodd" transform="matrix(1 0 0 1 0 0)" d="M0.36 69.64001L597.48 69.64001L597.48 69.64001L597.48 3.640015L597.48 3.640015L0.36 3.640015z" /></clipPath><clipPath id="36"><path id="" clip-rule="evenodd" transform="matrix(1 0 0 1 0 0)" d="M0.36 69.64001L597.48 69.64001L597.48 69.64001L597.48 3.640015L597.48 3.640015L0.36 3.640015z" /></clipPath><clipPath id="37"><path id="" clip-rule="evenodd" transform="matrix(1 0 0 1 0 0)" d="M0.36 69.64001L597.48 69.64001L597.48 69.64001L597.48 3.640015L597.48 3.640015L0.36 3.640015z" /></clipPath><clipPath id="38"><path id="" clip-rule="evenodd" transform="matrix(1 0 0 1 0 0)" d="M0.36 69.64001L597.48 69.64001L597.48 69.64001L597.48 3.640015L597.48 3.640015L0.36 3.640015z" /></clipPath><clipPath id="39"><path id="" clip-rule="evenodd" transform="matrix(1 0 0 1 0 0)" d="M0.36 69.64001L597.48 69.64001L597.48 69.64001L597.48 3.640015L597.48 3.640015L0.36 3.640015z" /></clipPath><clipPath id="40"><path id="" clip-rule="evenodd" transform="matrix(1 0 0 1 0 0)" d="M0.36 69.64001L597.48 69.64001L597.48 69.64001L597.48 3.640015L597.48 3.640015L0.36 3.640015z" /></clipPath><clipPath id="41"><path id="" clip-rule="evenodd" transform="matrix(1 0 0 1 0 0)" d="M0.36 69.64001L597.48 69.64001L597.48 69.64001L597.48 3.640015L597.48 3.640015L0.36 3.640015z" /></clipPath><clipPath id="42"><path id="" clip-rule="evenodd" transform="matrix(1 0 0 1 0 0)" d="M0.36 69.64001L597.48 69.64001L597.48 69.64001L597.48 3.640015L597.48 3.640015L0.36 3.640015z" /></clipPath><clipPath id="43"><path id="" clip-rule="evenodd" transform="matrix(1 0 0 1 0 0)" d="M0.36 69.64001L597.48 69.64001L597.48 69.64001L597.48 3.640015L597.48 3.640015L0.36 3.640015z" /></clipPath><clipPath id="44"><path id="" clip-rule="evenodd" transform="matrix(1 0 0 1 0 0)" d="M0.36 69.64001L597.48 69.64001L597.48 69.64001L597.48 3.640015L597.48 3.640015L0.36 3.640015z" /></clipPath><clipPath id="45"><path id="" clip-rule="evenodd" transform="matrix(1 0 0 1 0 0)" d="M34.68 108.3L560.74 108.3L560.74 108.3L560.74 89.82001L560.74 89.82001L34.68 89.82001z" /></clipPath><clipPath id="46"><path id="" clip-rule="evenodd" transform="matrix(1 0 0 1 0 0)" d="M34.68 108.3L560.74 108.3L560.74 108.3L560.74 89.82001L560.74 89.82001L34.68 89.82001z" /></clipPath><clipPath id="47"><path id="" clip-rule="evenodd" transform="matrix(1 0 0 1 0 0)" d="M34.68 108.3L560.74 108.3L560.74 108.3L560.74 89.82001L560.74 89.82001L34.68 89.82001z" /></clipPath><clipPath id="48"><path id="" clip-rule="evenodd" transform="matrix(1 0 0 1 0 0)" d="M32.04 214.38L558.1 214.38L558.1 214.38L558.1 126.06L558.1 126.06L32.04 126.06z" /></clipPath><clipPath id="49"><path id="" clip-rule="evenodd" transform="matrix(1 0 0 1 0 0)" d="M32.04 214.38L558.1 214.38L558.1 214.38L558.1 126.06L558.1 126.06L32.04 126.06z" /></clipPath><clipPath id="50"><path id="" clip-rule="evenodd" transform="matrix(1 0 0 1 0 0)" d="M32.04 214.38L558.1 214.38L558.1 214.38L558.1 126.06L558.1 126.06L32.04 126.06z" /></clipPath><clipPath id="51"><path id="" clip-rule="evenodd" transform="matrix(1 0 0 1 0 0)" d="M32.04 214.38L558.1 214.38L558.1 214.38L558.1 126.06L558.1 126.06L32.04 126.06z" /></clipPath><clipPath id="52"><path id="" clip-rule="evenodd" transform="matrix(1 0 0 1 0 0)" d="M32.04 214.38L558.1 214.38L558.1 214.38L558.1 126.06L558.1 126.06L32.04 126.06z" /></clipPath><clipPath id="53"><path id="" clip-rule="evenodd" transform="matrix(1 0 0 1 0 0)" d="M32.04 214.38L558.1 214.38L558.1 214.38L558.1 126.06L558.1 126.06L32.04 126.06z" /></clipPath><clipPath id="54"><path id="" clip-rule="evenodd" transform="matrix(1 0 0 1 0 0)" d="M32.04 214.38L558.1 214.38L558.1 214.38L558.1 126.06L558.1 126.06L32.04 126.06z" /></clipPath><clipPath id="55"><path id="" clip-rule="evenodd" transform="matrix(1 0 0 1 0 0)" d="M32.04 214.38L558.1 214.38L558.1 214.38L558.1 126.06L558.1 126.06L32.04 126.06z" /></clipPath><clipPath id="56"><path id="" clip-rule="evenodd" transform="matrix(1 0 0 1 0 0)" d="M32.04 214.38L558.1 214.38L558.1 214.38L558.1 126.06L558.1 126.06L32.04 126.06z" /></clipPath><clipPath id="57"><path id="" clip-rule="evenodd" transform="matrix(1 0 0 1 0 0)" d="M32.04 214.38L558.1 214.38L558.1 214.38L558.1 126.06L558.1 126.06L32.04 126.06z" /></clipPath><clipPath id="58"><path id="" clip-rule="evenodd" transform="matrix(1 0 0 1 0 0)" d="M32.04 214.38L558.1 214.38L558.1 214.38L558.1 126.06L558.1 126.06L32.04 126.06z" /></clipPath><clipPath id="59"><path id="" clip-rule="evenodd" transform="matrix(1 0 0 1 0 0)" d="M32.04 214.38L558.1 214.38L558.1 214.38L558.1 126.06L558.1 126.06L32.04 126.06z" /></clipPath><clipPath id="60"><path id="" clip-rule="evenodd" transform="matrix(1 0 0 1 0 0)" d="M32.04 214.38L558.1 214.38L558.1 214.38L558.1 126.06L558.1 126.06L32.04 126.06z" /></clipPath><clipPath id="61"><path id="" clip-rule="evenodd" transform="matrix(1 0 0 1 0 0)" d="M32.04 214.38L558.1 214.38L558.1 214.38L558.1 126.06L558.1 126.06L32.04 126.06z" /></clipPath><clipPath id="62"><path id="" clip-rule="evenodd" transform="matrix(1 0 0 1 0 0)" d="M32.04 214.38L558.1 214.38L558.1 214.38L558.1 126.06L558.1 126.06L32.04 126.06z" /></clipPath><clipPath id="63"><path id="" clip-rule="evenodd" transform="matrix(1 0 0 1 0 0)" d="M32.04 214.38L558.1 214.38L558.1 214.38L558.1 126.06L558.1 126.06L32.04 126.06z" /></clipPath><clipPath id="64"><path id="" clip-rule="evenodd" transform="matrix(1 0 0 1 0 0)" d="M32.04 214.38L558.1 214.38L558.1 214.38L558.1 126.06L558.1 126.06L32.04 126.06z" /></clipPath><clipPath id="65"><path id="" clip-rule="evenodd" transform="matrix(1 0 0 1 0 0)" d="M32.04 214.38L558.1 214.38L558.1 214.38L558.1 126.06L558.1 126.06L32.04 126.06z" /></clipPath><clipPath id="66"><path id="" clip-rule="evenodd" transform="matrix(1 0 0 1 0 0)" d="M32.04 214.38L558.1 214.38L558.1 214.38L558.1 126.06L558.1 126.06L32.04 126.06z" /></clipPath><clipPath id="67"><path id="" clip-rule="evenodd" transform="matrix(1 0 0 1 0 0)" d="M32.04 214.38L558.1 214.38L558.1 214.38L558.1 126.06L558.1 126.06L32.04 126.06z" /></clipPath><clipPath id="68"><path id="" clip-rule="evenodd" transform="matrix(1 0 0 1 0 0)" d="M32.04 214.38L558.1 214.38L558.1 214.38L558.1 126.06L558.1 126.06L32.04 126.06z" /></clipPath><clipPath id="69"><path id="" clip-rule="evenodd" transform="matrix(1 0 0 1 0 0)" d="M-6.2155E-05 -0.9199829L595.32 -0.9199829L595.32 -0.9199829L595.32 840.9999L595.32 840.9999L-6.2155E-05 840.9999" /></clipPath><clipPath id="70"><path id="" clip-rule="evenodd" transform="matrix(1 0 0 1 0 0)" d="M-5.62E-07 840.9998L595.32 840.9998L595.32 840.9998L595.32 -0.920166L595.32 -0.920166L-5.62E-07 -0.920166z" /></clipPath><clipPath id="71"><path id="" clip-rule="evenodd" transform="matrix(1 0 0 1 0 0)" d="M8.938E-06 840.9998L595.32 840.9998L595.32 840.9998L595.32 -0.920166L595.32 -0.920166L8.938E-06 -0.920166z" /></clipPath><clipPath id="72"><path id="" clip-rule="evenodd" transform="matrix(1 0 0 1 0 0)" d="M9.334E-06 840.9998L595.32 840.9998L595.32 840.9998L595.32 -0.9202271L595.32 -0.9202271L9.334E-06 -0.9202271z" /></clipPath><clipPath id="73"><path id="" clip-rule="evenodd" transform="matrix(1 0 0 1 0 0)" d="M34.68 409.67L560.74 409.67L560.74 409.67L560.74 391.046L560.74 391.046L34.68 391.046z" /></clipPath><clipPath id="74"><path id="" clip-rule="evenodd" transform="matrix(1 0 0 1 0 0)" d="M34.68 409.67L560.74 409.67L560.74 409.67L560.74 391.046L560.74 391.046L34.68 391.046z" /></clipPath><clipPath id="75"><path id="" clip-rule="evenodd" transform="matrix(1 0 0 1 0 0)" d="M34.68 409.67L560.74 409.67L560.74 409.67L560.74 391.046L560.74 391.046L34.68 391.046z" /></clipPath><clipPath id="76"><path id="" clip-rule="evenodd" transform="matrix(1 0 0 1 0 0)" d="M32.64 450.47L557.74 450.47L557.74 450.47L557.74 423.83L557.74 423.83L32.64 423.83z" /></clipPath><clipPath id="77"><path id="" clip-rule="evenodd" transform="matrix(1 0 0 1 0 0)" d="M32.64 450.47L557.74 450.47L557.74 450.47L557.74 423.83L557.74 423.83L32.64 423.83z" /></clipPath><clipPath id="78"><path id="" clip-rule="evenodd" transform="matrix(1 0 0 1 0 0)" d="M32.64 450.47L557.74 450.47L557.74 450.47L557.74 423.83L557.74 423.83L32.64 423.83z" /></clipPath><clipPath id="79"><path id="" clip-rule="evenodd" transform="matrix(1 0 0 1 0 0)" d="M32.64 450.47L557.74 450.47L557.74 450.47L557.74 423.83L557.74 423.83L32.64 423.83z" /></clipPath><clipPath id="80"><path id="" clip-rule="evenodd" transform="matrix(1 0 0 1 0 0)" d="M32.64 450.47L557.74 450.47L557.74 450.47L557.74 423.83L557.74 423.83L32.64 423.83z" /></clipPath><clipPath id="81"><path id="" clip-rule="evenodd" transform="matrix(1 0 0 1 0 0)" d="M32.64 450.47L557.74 450.47L557.74 450.47L557.74 423.83L557.74 423.83L32.64 423.83z" /></clipPath><clipPath id="82"><path id="" clip-rule="evenodd" transform="matrix(1 0 0 1 0 0)" d="M32.64 450.47L557.74 450.47L557.74 450.47L557.74 423.83L557.74 423.83L32.64 423.83z" /></clipPath><clipPath id="83"><path id="" clip-rule="evenodd" transform="matrix(1 0 0 1 0 0)" d="M32.64 450.47L557.74 450.47L557.74 450.47L557.74 423.83L557.74 423.83L32.64 423.83z" /></clipPath><clipPath id="84"><path id="" clip-rule="evenodd" transform="matrix(1 0 0 1 0 0)" d="M32.64 450.47L557.74 450.47L557.74 450.47L557.74 423.83L557.74 423.83L32.64 423.83z" /></clipPath><clipPath id="85"><path id="" clip-rule="evenodd" transform="matrix(1 0 0 1 0 0)" d="M32.64 450.47L557.74 450.47L557.74 450.47L557.74 423.83L557.74 423.83L32.64 423.83z" /></clipPath><clipPath id="86"><path id="" clip-rule="evenodd" transform="matrix(1 0 0 1 0 0)" d="M32.64 450.47L557.74 450.47L557.74 450.47L557.74 423.83L557.74 423.83L32.64 423.83z" /></clipPath><clipPath id="87"><path id="" clip-rule="evenodd" transform="matrix(1 0 0 1 0 0)" d="M32.64 450.47L557.74 450.47L557.74 450.47L557.74 423.83L557.74 423.83L32.64 423.83z" /></clipPath><clipPath id="88"><path id="" clip-rule="evenodd" transform="matrix(1 0 0 1 0 0)" d="M32.64 450.47L557.74 450.47L557.74 450.47L557.74 423.83L557.74 423.83L32.64 423.83z" /></clipPath><clipPath id="89"><path id="" clip-rule="evenodd" transform="matrix(1 0 0 1 0 0)" d="M32.64 450.47L557.74 450.47L557.74 450.47L557.74 423.83L557.74 423.83L32.64 423.83z" /></clipPath><clipPath id="90"><path id="" clip-rule="evenodd" transform="matrix(1 0 0 1 0 0)" d="M32.64 450.47L557.74 450.47L557.74 450.47L557.74 423.83L557.74 423.83L32.64 423.83z" /></clipPath><clipPath id="91"><path id="" clip-rule="evenodd" transform="matrix(1 0 0 1 0 0)" d="M32.64 450.47L557.74 450.47L557.74 450.47L557.74 423.83L557.74 423.83L32.64 423.83z" /></clipPath><clipPath id="92"><path id="" clip-rule="evenodd" transform="matrix(1 0 0 1 0 0)" d="M-1.18E-06 840.9998L595.32 840.9998L595.32 840.9998L595.32 -0.9202271L595.32 -0.9202271L-1.18E-06 -0.9202271z" /></clipPath><clipPath id="93"><path id="" clip-rule="evenodd" transform="matrix(1 0 0 1 0 0)" d="M-1.2659E-05 840.9998L595.32 840.9998L595.32 840.9998L595.32 -0.920166L595.32 -0.920166L-1.2659E-05 -0.920166z" /></clipPath><clipPath id="94"><path id="" clip-rule="evenodd" transform="matrix(1 0 0 1 0 0)" d="M72.264 802.36L435.554 802.36L435.554 802.36L435.554 738.04L435.554 738.04L72.264 738.04z" /></clipPath><clipPath id="95"><path id="" clip-rule="evenodd" transform="matrix(1 0 0 1 0 0)" d="M72.264 802.36L435.554 802.36L435.554 802.36L435.554 738.04L435.554 738.04L72.264 738.04z" /></clipPath><clipPath id="96"><path id="" clip-rule="evenodd" transform="matrix(1 0 0 1 0 0)" d="M72.264 802.36L435.554 802.36L435.554 802.36L435.554 738.04L435.554 738.04L72.264 738.04z" /></clipPath><clipPath id="97"><path id="" clip-rule="evenodd" transform="matrix(1 0 0 1 0 0)" d="M72.264 802.36L435.554 802.36L435.554 802.36L435.554 738.04L435.554 738.04L72.264 738.04z" /></clipPath><clipPath id="98"><path id="" clip-rule="evenodd" transform="matrix(1 0 0 1 0 0)" d="M72.264 802.36L435.554 802.36L435.554 802.36L435.554 738.04L435.554 738.04L72.264 738.04z" /></clipPath><clipPath id="99"><path id="" clip-rule="evenodd" transform="matrix(1 0 0 1 0 0)" d="M72.264 802.36L435.554 802.36L435.554 802.36L435.554 738.04L435.554 738.04L72.264 738.04z" /></clipPath><clipPath id="100"><path id="" clip-rule="evenodd" transform="matrix(1 0 0 1 0 0)" d="M72.264 802.36L435.554 802.36L435.554 802.36L435.554 738.04L435.554 738.04L72.264 738.04z" /></clipPath><clipPath id="101"><path id="" clip-rule="evenodd" transform="matrix(1 0 0 1 0 0)" d="M72.264 802.36L435.554 802.36L435.554 802.36L435.554 738.04L435.554 738.04L72.264 738.04z" /></clipPath><clipPath id="102"><path id="" clip-rule="evenodd" transform="matrix(1 0 0 1 0 0)" d="M72.264 802.36L435.554 802.36L435.554 802.36L435.554 738.04L435.554 738.04L72.264 738.04z" /></clipPath><clipPath id="103"><path id="" clip-rule="evenodd" transform="matrix(1 0 0 1 0 0)" d="M72.264 802.36L435.554 802.36L435.554 802.36L435.554 738.04L435.554 738.04L72.264 738.04z" /></clipPath><clipPath id="104"><path id="" clip-rule="evenodd" transform="matrix(1 0 0 1 0 0)" d="M72.264 802.36L435.554 802.36L435.554 802.36L435.554 738.04L435.554 738.04L72.264 738.04z" /></clipPath><clipPath id="105"><path id="" clip-rule="evenodd" transform="matrix(1 0 0 1 0 0)" d="M72.264 802.36L435.554 802.36L435.554 802.36L435.554 738.04L435.554 738.04L72.264 738.04z" /></clipPath><clipPath id="106"><path id="" clip-rule="evenodd" transform="matrix(1 0 0 1 0 0)" d="M72.264 802.36L435.554 802.36L435.554 802.36L435.554 738.04L435.554 738.04L72.264 738.04z" /></clipPath><clipPath id="107"><path id="" clip-rule="evenodd" transform="matrix(1 0 0 1 0 0)" d="M72.264 802.36L435.554 802.36L435.554 802.36L435.554 738.04L435.554 738.04L72.264 738.04z" /></clipPath><clipPath id="108"><path id="" clip-rule="evenodd" transform="matrix(1 0 0 1 0 0)" d="M72.264 802.36L435.554 802.36L435.554 802.36L435.554 738.04L435.554 738.04L72.264 738.04z" /></clipPath><clipPath id="109"><path id="" clip-rule="evenodd" transform="matrix(1 0 0 1 0 0)" d="M72.264 802.36L435.554 802.36L435.554 802.36L435.554 738.04L435.554 738.04L72.264 738.04z" /></clipPath><clipPath id="110"><path id="" clip-rule="evenodd" transform="matrix(1 0 0 1 0 0)" d="M72.264 802.36L435.554 802.36L435.554 802.36L435.554 738.04L435.554 738.04L72.264 738.04z" /></clipPath><clipPath id="111"><path id="" clip-rule="evenodd" transform="matrix(1 0 0 1 0 0)" d="M72.264 802.36L435.554 802.36L435.554 802.36L435.554 738.04L435.554 738.04L72.264 738.04z" /></clipPath><clipPath id="112"><path id="" clip-rule="evenodd" transform="matrix(1 0 0 1 0 0)" d="M72.264 802.36L435.554 802.36L435.554 802.36L435.554 738.04L435.554 738.04L72.264 738.04z" /></clipPath><clipPath id="113"><path id="" clip-rule="evenodd" transform="matrix(1 0 0 1 0 0)" d="M72.264 802.36L435.554 802.36L435.554 802.36L435.554 738.04L435.554 738.04L72.264 738.04z" /></clipPath><clipPath id="114"><path id="" clip-rule="evenodd" transform="matrix(1 0 0 1 0 0)" d="M72.264 802.36L435.554 802.36L435.554 802.36L435.554 738.04L435.554 738.04L72.264 738.04z" /></clipPath><clipPath id="115"><path id="" clip-rule="evenodd" transform="matrix(1 0 0 1 0 0)" d="M72.264 802.36L435.554 802.36L435.554 802.36L435.554 738.04L435.554 738.04L72.264 738.04z" /></clipPath><clipPath id="116"><path id="" clip-rule="evenodd" transform="matrix(1 0 0 1 0 0)" d="M72.264 802.36L435.554 802.36L435.554 802.36L435.554 738.04L435.554 738.04L72.264 738.04z" /></clipPath><clipPath id="117"><path id="" clip-rule="evenodd" transform="matrix(1 0 0 1 0 0)" d="M72.264 802.36L435.554 802.36L435.554 802.36L435.554 738.04L435.554 738.04L72.264 738.04z" /></clipPath><clipPath id="118"><path id="" clip-rule="evenodd" transform="matrix(1 0 0 1 0 0)" d="M72.264 802.36L435.554 802.36L435.554 802.36L435.554 738.04L435.554 738.04L72.264 738.04z" /></clipPath><clipPath id="119"><path id="" clip-rule="evenodd" transform="matrix(1 0 0 1 0 0)" d="M72.264 802.36L435.554 802.36L435.554 802.36L435.554 738.04L435.554 738.04L72.264 738.04z" /></clipPath><clipPath id="120"><path id="" clip-rule="evenodd" transform="matrix(1 0 0 1 0 0)" d="M72.264 802.36L435.554 802.36L435.554 802.36L435.554 738.04L435.554 738.04L72.264 738.04z" /></clipPath><clipPath id="121"><path id="" clip-rule="evenodd" transform="matrix(1 0 0 1 0 0)" d="M72.264 802.36L435.554 802.36L435.554 802.36L435.554 738.04L435.554 738.04L72.264 738.04z" /></clipPath><clipPath id="122"><path id="" clip-rule="evenodd" transform="matrix(1 0 0 1 0 0)" d="M72.264 802.36L435.554 802.36L435.554 802.36L435.554 738.04L435.554 738.04L72.264 738.04z" /></clipPath><clipPath id="123"><path id="" clip-rule="evenodd" transform="matrix(1 0 0 1 0 0)" d="M72.264 802.36L435.554 802.36L435.554 802.36L435.554 738.04L435.554 738.04L72.264 738.04z" /></clipPath><clipPath id="124"><path id="" clip-rule="evenodd" transform="matrix(1 0 0 1 0 0)" d="M72.264 802.36L435.554 802.36L435.554 802.36L435.554 738.04L435.554 738.04L72.264 738.04z" /></clipPath><clipPath id="125"><path id="" clip-rule="evenodd" transform="matrix(1 0 0 1 0 0)" d="M72.264 802.36L435.554 802.36L435.554 802.36L435.554 738.04L435.554 738.04L72.264 738.04z" /></clipPath><clipPath id="126"><path id="" clip-rule="evenodd" transform="matrix(1 0 0 1 0 0)" d="M72.264 802.36L435.554 802.36L435.554 802.36L435.554 738.04L435.554 738.04L72.264 738.04z" /></clipPath><clipPath id="127"><path id="" clip-rule="evenodd" transform="matrix(1 0 0 1 0 0)" d="M72.264 802.36L435.554 802.36L435.554 802.36L435.554 738.04L435.554 738.04L72.264 738.04z" /></clipPath><clipPath id="128"><path id="" clip-rule="evenodd" transform="matrix(1 0 0 1 0 0)" d="M72.264 802.36L435.554 802.36L435.554 802.36L435.554 738.04L435.554 738.04L72.264 738.04z" /></clipPath><clipPath id="129"><path id="" clip-rule="evenodd" transform="matrix(1 0 0 1 0 0)" d="M72.264 802.36L435.554 802.36L435.554 802.36L435.554 738.04L435.554 738.04L72.264 738.04z" /></clipPath><clipPath id="130"><path id="" clip-rule="evenodd" transform="matrix(1 0 0 1 0 0)" d="M72.264 802.36L435.554 802.36L435.554 802.36L435.554 738.04L435.554 738.04L72.264 738.04z" /></clipPath><clipPath id="131"><path id="" clip-rule="evenodd" transform="matrix(1 0 0 1 0 0)" d="M72.264 802.36L435.554 802.36L435.554 802.36L435.554 738.04L435.554 738.04L72.264 738.04z" /></clipPath><clipPath id="132"><path id="" clip-rule="evenodd" transform="matrix(1 0 0 1 0 0)" d="M72.264 802.36L435.554 802.36L435.554 802.36L435.554 738.04L435.554 738.04L72.264 738.04z" /></clipPath><clipPath id="133"><path id="" clip-rule="evenodd" transform="matrix(1 0 0 1 0 0)" d="M72.264 802.36L435.554 802.36L435.554 802.36L435.554 738.04L435.554 738.04L72.264 738.04z" /></clipPath></defs><g transform="matrix(1.333333 0 0 1.333333 0 0)"><g clip-path="url(#1)"><g clip-path="url(#2)"></g><g clip-path="url(#3)"></g><path id="1" transform="matrix(1 0 0 -1 0 841)" d="M33.75 18.429L570 18.429L570 18.429L570 217.929L570 217.929L33.75 217.929z" stroke="none" fill="#203864" fill-rule="evenodd" /><g clip-path="url(#4)"><g clip-path="url(#5)"></g><g clip-path="url(#6)"></g><g clip-path="url(#7)"></g><g clip-path="url(#8)"></g><g clip-path="url(#9)"></g><g clip-path="url(#10)"></g><g clip-path="url(#11)"></g><g clip-path="url(#12)"></g><g clip-path="url(#13)"></g><g clip-path="url(#14)"></g><g clip-path="url(#15)"></g><g clip-path="url(#16)"></g><g clip-path="url(#17)"></g><g clip-path="url(#18)"></g><g clip-path="url(#19)"></g><g clip-path="url(#20)"></g><g clip-path="url(#21)"></g><g clip-path="url(#22)"></g><g clip-path="url(#23)"></g><g clip-path="url(#24)"></g><g clip-path="url(#25)"></g><g clip-path="url(#26)"></g><g clip-path="url(#27)"></g><g clip-path="url(#28)"></g><g clip-path="url(#29)"></g><g clip-path="url(#30)"></g><g clip-path="url(#31)"></g></g><g clip-path="url(#32)"><path id="114" transform="matrix(1 0 0 -1 0 841)" d="M0 767.47L597.75 767.47L597.75 767.47L597.75 841.3199L597.75 841.3199L0 841.3199z" stroke="none" fill="#203864" fill-rule="evenodd" /></g><g clip-path="url(#33)"><path id="115" transform="matrix(1 0 0 -1 0 841)" d="M0 767.47L597.75 767.47L597.75 767.47L597.75 841.3199L597.75 841.3199L0 841.3199z" stroke="#548235" stroke-width="0.75" fill="none" /></g><g clip-path="url(#34)"><g clip-path="url(#35)"></g><g clip-path="url(#36)"></g><g clip-path="url(#37)"></g><g clip-path="url(#38)"></g><g clip-path="url(#39)"></g><g clip-path="url(#40)"></g><g clip-path="url(#41)"></g><g clip-path="url(#42)"></g><g clip-path="url(#43)"></g><g clip-path="url(#44)"></g></g><path id="158" transform="matrix(1 0 0 -1 0 841)" d="M34.4 728.82L560.9 728.82L560.9 728.82L560.9 755.07L560.9 755.07L34.4 755.07z" stroke="none" fill="#C00000" fill-rule="evenodd" /><g clip-path="url(#45)"><g clip-path="url(#46)"></g><g clip-path="url(#47)"></g></g><path id="180" transform="matrix(1 0 0 -1 0 841)" d="M31.8 622.83L558.3 622.83L558.3 622.83L558.3 718.83L558.3 718.83L31.8 718.83z" stroke="none" fill="#FFFFFF" fill-rule="evenodd" /><path id="181" transform="matrix(1 0 0 -1 0 841)" d="M31.8 622.83L558.3 622.83L558.3 622.83L558.3 718.83L558.3 718.83L31.8 718.83z" stroke="#7C7C7C" stroke-width="0.5" fill="none" /><g clip-path="url(#48)"><g clip-path="url(#49)"></g><g clip-path="url(#50)"></g><g clip-path="url(#51)"></g><g clip-path="url(#52)"></g><g clip-path="url(#53)"></g><g clip-path="url(#54)"></g><g clip-path="url(#55)"></g><g clip-path="url(#56)"></g><g clip-path="url(#57)"></g><g clip-path="url(#58)"></g><g clip-path="url(#59)"></g><g clip-path="url(#60)"></g><g clip-path="url(#61)"></g><g clip-path="url(#62)"></g><g clip-path="url(#63)"></g><g clip-path="url(#64)"></g><g clip-path="url(#65)"></g><g clip-path="url(#66)"></g><g clip-path="url(#67)"></g><g clip-path="url(#68)"></g></g><g clip-path="url(#69)"><g transform="matrix(0 0.361032 -0.3607408 0 275.4 238.97)"><g transform="matrix(1 0 0 1 0 0)"><image x="0" y="0" xlink:href="img_43.png" width="281" height="270" /></g></g></g><g clip-path="url(#70)"><g transform="matrix(0.324537 0 0 0.3252336 29.6 238.22)"><g transform="matrix(1 0 0 1 0 0)"><image x="0" y="0" xlink:href="img_44.png" width="432" height="321" /></g></g></g><g clip-path="url(#71)"><g transform="matrix(0.3255712 0 0 0.3249288 373.85 230.72)"><g transform="matrix(1 0 0 1 0 0)"><image x="0" y="0" xlink:href="img_45.png" width="569" height="351" /></g></g></g><g clip-path="url(#72)"><g transform="matrix(0.3285499 0 0 0.3279452 279.35 231.47)"><g transform="matrix(1 0 0 1 0 0)"><image x="0" y="0" xlink:href="img_46.png" width="331" height="365" /></g></g></g><path id="506" transform="matrix(1 0 0 -1 0 841)" d="M34.4 427.58L560.9 427.58L560.9 427.58L560.9 453.83L560.9 453.83L34.4 453.83z" stroke="none" fill="#C00000" fill-rule="evenodd" /><g clip-path="url(#73)"><g clip-path="url(#74)"></g><g clip-path="url(#75)"></g></g><path id="540" transform="matrix(1 0 0 -1 0 841)" d="M32.25 386.68L558 386.68L558 386.68L558 421.18L558 421.18L32.25 421.18z" stroke="#7C7C7C" stroke-width="0.75" fill="none" /><g clip-path="url(#76)"><g clip-path="url(#77)"></g><g clip-path="url(#78)"></g><g clip-path="url(#79)"></g><g clip-path="url(#80)"></g><g clip-path="url(#81)"></g><g clip-path="url(#82)"></g><g clip-path="url(#83)"></g><g clip-path="url(#84)"></g><g clip-path="url(#85)"></g><g clip-path="url(#86)"></g><g clip-path="url(#87)"></g><g clip-path="url(#88)"></g><g clip-path="url(#89)"></g><g clip-path="url(#90)"></g><g clip-path="url(#91)"></g></g><g clip-path="url(#92)"><g transform="matrix(0.327074 0 0 0.3274678 33.05 460.52)"><g transform="matrix(1 0 0 1 0 0)"><image x="0" y="0" xlink:href="img_47.png" width="892" height="466" /></g></g></g><g clip-path="url(#93)"><g transform="matrix(0.3592876 0 0 0.3595283 322.8 456.76)"><g transform="matrix(1 0 0 1 0 0)"><image x="0" y="0" xlink:href="img_48.png" width="758" height="636" /></g></g></g><g clip-path="url(#94)"><g clip-path="url(#95)"></g><g clip-path="url(#96)"></g><g clip-path="url(#97)"></g><path id="695" transform="matrix(1 0 0 -1 0 841)" d="M79.464 89.4L153.504 89.4L153.504 89.4L153.504 90.24003L153.504 90.24003L79.464 90.24003z" stroke="none" fill="#FFFFFF" fill-rule="evenodd" /><g clip-path="url(#98)"></g><g clip-path="url(#99)"></g><g clip-path="url(#100)"></g><g clip-path="url(#101)"></g><g clip-path="url(#102)"></g><g clip-path="url(#103)"></g><g clip-path="url(#104)"></g><g clip-path="url(#105)"></g><g clip-path="url(#106)"></g><g clip-path="url(#107)"></g><g clip-path="url(#108)"></g><g clip-path="url(#109)"></g><g clip-path="url(#110)"></g><g clip-path="url(#111)"></g><g clip-path="url(#112)"></g><g clip-path="url(#113)"></g><g clip-path="url(#114)"></g><g clip-path="url(#115)"></g><g clip-path="url(#116)"></g><g clip-path="url(#117)"></g><g clip-path="url(#118)"></g><g clip-path="url(#119)"></g><g clip-path="url(#120)"></g><g clip-path="url(#121)"></g><g clip-path="url(#122)"></g><g clip-path="url(#123)"></g><g clip-path="url(#124)"></g><g clip-path="url(#125)"></g><g clip-path="url(#126)"></g><g clip-path="url(#127)"></g><g clip-path="url(#128)"></g><g clip-path="url(#129)"></g><g clip-path="url(#130)"></g><g clip-path="url(#131)"></g><g clip-path="url(#132)"></g><g clip-path="url(#133)"></g></g></g></g></svg>