<svg xmlns="http://www.w3.org/2000/svg" xmlns:xlink="http://www.w3.org/1999/xlink" id="body_3" preserveAspectRatio="xMinYMin meet" viewBox="0 0 793 1121"><defs><clipPath id="1"><path id="" clip-rule="evenodd" transform="matrix(1 0 0 1 0 0)" d="M0 841L0 -0.9199829L0 -0.9199829L595.32 -0.9199829L595.32 -0.9199829L595.32 841L595.32 841L0 841z" /></clipPath><clipPath id="2"><path id="" clip-rule="evenodd" transform="matrix(1 0 0 1 0 0)" d="M8.871E-06 841L595.32 841L595.32 841L595.32 -0.9199829L595.32 -0.9199829L8.871E-06 -0.9199829z" /></clipPath><clipPath id="3"><path id="" clip-rule="evenodd" transform="matrix(1 0 0 1 0 0)" d="M8.871E-06 841L595.32 841L595.32 841L595.32 -0.9199829L595.32 -0.9199829L8.871E-06 -0.9199829z" /></clipPath><clipPath id="4"><path id="" clip-rule="evenodd" transform="matrix(1 0 0 1 0 0)" d="M8.871E-06 841L595.32 841L595.32 841L595.32 -0.9199829L595.32 -0.9199829L8.871E-06 -0.9199829z" /></clipPath><clipPath id="5"><path id="" clip-rule="evenodd" transform="matrix(1 0 0 1 0 0)" d="M8.871E-06 841L595.32 841L595.32 841L595.32 -0.9199829L595.32 -0.9199829L8.871E-06 -0.9199829z" /></clipPath><clipPath id="6"><path id="" clip-rule="evenodd" transform="matrix(1 0 0 1 0 0)" d="M8.871E-06 841L595.32 841L595.32 841L595.32 -0.9199829L595.32 -0.9199829L8.871E-06 -0.9199829z" /></clipPath><clipPath id="7"><path id="" clip-rule="evenodd" transform="matrix(1 0 0 1 0 0)" d="M8.871E-06 841L595.32 841L595.32 841L595.32 -0.9199829L595.32 -0.9199829L8.871E-06 -0.9199829z" /></clipPath><clipPath id="8"><path id="" clip-rule="evenodd" transform="matrix(1 0 0 1 0 0)" d="M36.96 543.59L569.14 543.59L569.14 543.59L569.14 407.99L569.14 407.99L36.96 407.99z" /></clipPath><clipPath id="9"><path id="" clip-rule="evenodd" transform="matrix(1 0 0 1 0 0)" d="M36.96 543.59L569.14 543.59L569.14 543.59L569.14 407.99L569.14 407.99L36.96 407.99z" /></clipPath><clipPath id="10"><path id="" clip-rule="evenodd" transform="matrix(1 0 0 1 0 0)" d="M36.96 543.59L569.14 543.59L569.14 543.59L569.14 407.99L569.14 407.99L36.96 407.99z" /></clipPath><clipPath id="11"><path id="" clip-rule="evenodd" transform="matrix(1 0 0 1 0 0)" d="M36.96 543.59L569.14 543.59L569.14 543.59L569.14 407.99L569.14 407.99L36.96 407.99z" /></clipPath><clipPath id="12"><path id="" clip-rule="evenodd" transform="matrix(1 0 0 1 0 0)" d="M36.96 543.59L569.14 543.59L569.14 543.59L569.14 407.99L569.14 407.99L36.96 407.99z" /></clipPath><clipPath id="13"><path id="" clip-rule="evenodd" transform="matrix(1 0 0 1 0 0)" d="M36.96 543.59L569.14 543.59L569.14 543.59L569.14 407.99L569.14 407.99L36.96 407.99z" /></clipPath><clipPath id="14"><path id="" clip-rule="evenodd" transform="matrix(1 0 0 1 0 0)" d="M36.96 543.59L569.14 543.59L569.14 543.59L569.14 407.99L569.14 407.99L36.96 407.99z" /></clipPath><clipPath id="15"><path id="" clip-rule="evenodd" transform="matrix(1 0 0 1 0 0)" d="M36.96 543.59L569.14 543.59L569.14 543.59L569.14 407.99L569.14 407.99L36.96 407.99z" /></clipPath><clipPath id="16"><path id="" clip-rule="evenodd" transform="matrix(1 0 0 1 0 0)" d="M36.96 543.59L569.14 543.59L569.14 543.59L569.14 407.99L569.14 407.99L36.96 407.99z" /></clipPath><clipPath id="17"><path id="" clip-rule="evenodd" transform="matrix(1 0 0 1 0 0)" d="M36.96 543.59L569.14 543.59L569.14 543.59L569.14 407.99L569.14 407.99L36.96 407.99z" /></clipPath><clipPath id="18"><path id="" clip-rule="evenodd" transform="matrix(1 0 0 1 0 0)" d="M36.96 543.59L569.14 543.59L569.14 543.59L569.14 407.99L569.14 407.99L36.96 407.99z" /></clipPath><clipPath id="19"><path id="" clip-rule="evenodd" transform="matrix(1 0 0 1 0 0)" d="M36.96 543.59L569.14 543.59L569.14 543.59L569.14 407.99L569.14 407.99L36.96 407.99z" /></clipPath><clipPath id="20"><path id="" clip-rule="evenodd" transform="matrix(1 0 0 1 0 0)" d="M36.96 543.59L569.14 543.59L569.14 543.59L569.14 407.99L569.14 407.99L36.96 407.99z" /></clipPath><clipPath id="21"><path id="" clip-rule="evenodd" transform="matrix(1 0 0 1 0 0)" d="M36.96 543.59L569.14 543.59L569.14 543.59L569.14 407.99L569.14 407.99L36.96 407.99z" /></clipPath><clipPath id="22"><path id="" clip-rule="evenodd" transform="matrix(1 0 0 1 0 0)" d="M36.96 543.59L569.14 543.59L569.14 543.59L569.14 407.99L569.14 407.99L36.96 407.99z" /></clipPath><clipPath id="23"><path id="" clip-rule="evenodd" transform="matrix(1 0 0 1 0 0)" d="M36.96 543.59L569.14 543.59L569.14 543.59L569.14 407.99L569.14 407.99L36.96 407.99z" /></clipPath><clipPath id="24"><path id="" clip-rule="evenodd" transform="matrix(1 0 0 1 0 0)" d="M36.96 543.59L569.14 543.59L569.14 543.59L569.14 407.99L569.14 407.99L36.96 407.99z" /></clipPath><clipPath id="25"><path id="" clip-rule="evenodd" transform="matrix(1 0 0 1 0 0)" d="M36.96 543.59L569.14 543.59L569.14 543.59L569.14 407.99L569.14 407.99L36.96 407.99z" /></clipPath><clipPath id="26"><path id="" clip-rule="evenodd" transform="matrix(1 0 0 1 0 0)" d="M38.52 741.64L185.06 741.64L185.06 741.64L185.06 563.99L185.06 563.99L38.52 563.99z" /></clipPath><clipPath id="27"><path id="" clip-rule="evenodd" transform="matrix(1 0 0 1 0 0)" d="M38.52 741.64L185.06 741.64L185.06 741.64L185.06 563.99L185.06 563.99L38.52 563.99z" /></clipPath><clipPath id="28"><path id="" clip-rule="evenodd" transform="matrix(1 0 0 1 0 0)" d="M38.52 741.64L185.06 741.64L185.06 741.64L185.06 563.99L185.06 563.99L38.52 563.99z" /></clipPath><clipPath id="29"><path id="" clip-rule="evenodd" transform="matrix(1 0 0 1 0 0)" d="M38.52 741.64L185.06 741.64L185.06 741.64L185.06 563.99L185.06 563.99L38.52 563.99z" /></clipPath><clipPath id="30"><path id="" clip-rule="evenodd" transform="matrix(1 0 0 1 0 0)" d="M38.52 741.64L185.06 741.64L185.06 741.64L185.06 563.99L185.06 563.99L38.52 563.99z" /></clipPath><clipPath id="31"><path id="" clip-rule="evenodd" transform="matrix(1 0 0 1 0 0)" d="M38.52 741.64L185.06 741.64L185.06 741.64L185.06 563.99L185.06 563.99L38.52 563.99z" /></clipPath><clipPath id="32"><path id="" clip-rule="evenodd" transform="matrix(1 0 0 1 0 0)" d="M38.52 741.64L185.06 741.64L185.06 741.64L185.06 563.99L185.06 563.99L38.52 563.99z" /></clipPath><clipPath id="33"><path id="" clip-rule="evenodd" transform="matrix(1 0 0 1 0 0)" d="M38.52 741.64L185.06 741.64L185.06 741.64L185.06 563.99L185.06 563.99L38.52 563.99z" /></clipPath><clipPath id="34"><path id="" clip-rule="evenodd" transform="matrix(1 0 0 1 0 0)" d="M38.52 741.64L185.06 741.64L185.06 741.64L185.06 563.99L185.06 563.99L38.52 563.99z" /></clipPath><clipPath id="35"><path id="" clip-rule="evenodd" transform="matrix(1 0 0 1 0 0)" d="M38.52 741.64L185.06 741.64L185.06 741.64L185.06 563.99L185.06 563.99L38.52 563.99z" /></clipPath><clipPath id="36"><path id="" clip-rule="evenodd" transform="matrix(1 0 0 1 0 0)" d="M38.52 741.64L185.06 741.64L185.06 741.64L185.06 563.99L185.06 563.99L38.52 563.99z" /></clipPath><clipPath id="37"><path id="" clip-rule="evenodd" transform="matrix(1 0 0 1 0 0)" d="M38.52 741.64L185.06 741.64L185.06 741.64L185.06 563.99L185.06 563.99L38.52 563.99z" /></clipPath><clipPath id="38"><path id="" clip-rule="evenodd" transform="matrix(1 0 0 1 0 0)" d="M38.52 741.64L185.06 741.64L185.06 741.64L185.06 563.99L185.06 563.99L38.52 563.99z" /></clipPath><clipPath id="39"><path id="" clip-rule="evenodd" transform="matrix(1 0 0 1 0 0)" d="M38.52 741.64L185.06 741.64L185.06 741.64L185.06 563.99L185.06 563.99L38.52 563.99z" /></clipPath><clipPath id="40"><path id="" clip-rule="evenodd" transform="matrix(1 0 0 1 0 0)" d="M38.52 741.64L185.06 741.64L185.06 741.64L185.06 563.99L185.06 563.99L38.52 563.99z" /></clipPath><clipPath id="41"><path id="" clip-rule="evenodd" transform="matrix(1 0 0 1 0 0)" d="M38.52 741.64L185.06 741.64L185.06 741.64L185.06 563.99L185.06 563.99L38.52 563.99z" /></clipPath><clipPath id="42"><path id="" clip-rule="evenodd" transform="matrix(1 0 0 1 0 0)" d="M38.52 741.64L185.06 741.64L185.06 741.64L185.06 563.99L185.06 563.99L38.52 563.99z" /></clipPath><clipPath id="43"><path id="" clip-rule="evenodd" transform="matrix(1 0 0 1 0 0)" d="M38.52 741.64L185.06 741.64L185.06 741.64L185.06 563.99L185.06 563.99L38.52 563.99z" /></clipPath><clipPath id="44"><path id="" clip-rule="evenodd" transform="matrix(1 0 0 1 0 0)" d="M38.52 741.64L185.06 741.64L185.06 741.64L185.06 563.99L185.06 563.99L38.52 563.99z" /></clipPath><clipPath id="45"><path id="" clip-rule="evenodd" transform="matrix(1 0 0 1 0 0)" d="M38.52 741.64L185.06 741.64L185.06 741.64L185.06 563.99L185.06 563.99L38.52 563.99z" /></clipPath><clipPath id="46"><path id="" clip-rule="evenodd" transform="matrix(1 0 0 1 0 0)" d="M38.52 741.64L185.06 741.64L185.06 741.64L185.06 563.99L185.06 563.99L38.52 563.99z" /></clipPath><clipPath id="47"><path id="" clip-rule="evenodd" transform="matrix(1 0 0 1 0 0)" d="M38.52 741.64L185.06 741.64L185.06 741.64L185.06 563.99L185.06 563.99L38.52 563.99z" /></clipPath><clipPath id="48"><path id="" clip-rule="evenodd" transform="matrix(1 0 0 1 0 0)" d="M38.52 741.64L185.06 741.64L185.06 741.64L185.06 563.99L185.06 563.99L38.52 563.99z" /></clipPath><clipPath id="49"><path id="" clip-rule="evenodd" transform="matrix(1 0 0 1 0 0)" d="M38.52 741.64L185.06 741.64L185.06 741.64L185.06 563.99L185.06 563.99L38.52 563.99z" /></clipPath><clipPath id="50"><path id="" clip-rule="evenodd" transform="matrix(1 0 0 1 0 0)" d="M38.52 819.64L575.16 819.64L575.16 819.64L575.16 756.76L575.16 756.76L38.52 756.76z" /></clipPath><clipPath id="51"><path id="" clip-rule="evenodd" transform="matrix(1 0 0 1 0 0)" d="M38.52 819.64L575.16 819.64L575.16 819.64L575.16 756.76L575.16 756.76L38.52 756.76z" /></clipPath><clipPath id="52"><path id="" clip-rule="evenodd" transform="matrix(1 0 0 1 0 0)" d="M38.52 819.64L575.16 819.64L575.16 819.64L575.16 756.76L575.16 756.76L38.52 756.76z" /></clipPath><clipPath id="53"><path id="" clip-rule="evenodd" transform="matrix(1 0 0 1 0 0)" d="M38.52 819.64L575.16 819.64L575.16 819.64L575.16 756.76L575.16 756.76L38.52 756.76z" /></clipPath><clipPath id="54"><path id="" clip-rule="evenodd" transform="matrix(1 0 0 1 0 0)" d="M38.52 819.64L575.16 819.64L575.16 819.64L575.16 756.76L575.16 756.76L38.52 756.76z" /></clipPath><clipPath id="55"><path id="" clip-rule="evenodd" transform="matrix(1 0 0 1 0 0)" d="M38.52 819.64L575.16 819.64L575.16 819.64L575.16 756.76L575.16 756.76L38.52 756.76z" /></clipPath><clipPath id="56"><path id="" clip-rule="evenodd" transform="matrix(1 0 0 1 0 0)" d="M38.52 819.64L575.16 819.64L575.16 819.64L575.16 756.76L575.16 756.76L38.52 756.76z" /></clipPath><clipPath id="57"><path id="" clip-rule="evenodd" transform="matrix(1 0 0 1 0 0)" d="M38.52 819.64L575.16 819.64L575.16 819.64L575.16 756.76L575.16 756.76L38.52 756.76z" /></clipPath><clipPath id="58"><path id="" clip-rule="evenodd" transform="matrix(1 0 0 1 0 0)" d="M38.52 819.64L575.16 819.64L575.16 819.64L575.16 756.76L575.16 756.76L38.52 756.76z" /></clipPath><clipPath id="59"><path id="" clip-rule="evenodd" transform="matrix(1 0 0 1 0 0)" d="M38.52 819.64L575.16 819.64L575.16 819.64L575.16 756.76L575.16 756.76L38.52 756.76z" /></clipPath><clipPath id="60"><path id="" clip-rule="evenodd" transform="matrix(1 0 0 1 0 0)" d="M38.52 819.64L575.16 819.64L575.16 819.64L575.16 756.76L575.16 756.76L38.52 756.76z" /></clipPath><clipPath id="61"><path id="" clip-rule="evenodd" transform="matrix(1 0 0 1 0 0)" d="M38.52 819.64L575.16 819.64L575.16 819.64L575.16 756.76L575.16 756.76L38.52 756.76z" /></clipPath><clipPath id="62"><path id="" clip-rule="evenodd" transform="matrix(1 0 0 1 0 0)" d="M38.52 819.64L575.16 819.64L575.16 819.64L575.16 756.76L575.16 756.76L38.52 756.76z" /></clipPath><clipPath id="63"><path id="" clip-rule="evenodd" transform="matrix(1 0 0 1 0 0)" d="M38.52 819.64L575.16 819.64L575.16 819.64L575.16 756.76L575.16 756.76L38.52 756.76z" /></clipPath><clipPath id="64"><path id="" clip-rule="evenodd" transform="matrix(1 0 0 1 0 0)" d="M38.52 819.64L575.16 819.64L575.16 819.64L575.16 756.76L575.16 756.76L38.52 756.76z" /></clipPath><clipPath id="65"><path id="" clip-rule="evenodd" transform="matrix(1 0 0 1 0 0)" d="M38.52 819.64L575.16 819.64L575.16 819.64L575.16 756.76L575.16 756.76L38.52 756.76z" /></clipPath><clipPath id="66"><path id="" clip-rule="evenodd" transform="matrix(1 0 0 1 0 0)" d="M-1E-09 840.9997L595.32 840.9997L595.32 840.9997L595.32 -0.9202881L595.32 -0.9202881L-1E-09 -0.9202881z" /></clipPath><clipPath id="67"><path id="" clip-rule="evenodd" transform="matrix(1 0 0 1 0 0)" d="M1.08 69.15997L595.32 69.15997L595.32 69.15997L595.32 3.159973L595.32 3.159973L1.08 3.159973z" /></clipPath><clipPath id="68"><path id="" clip-rule="evenodd" transform="matrix(1 0 0 1 0 0)" d="M1.08 69.15997L598.32 69.15997L598.32 69.15997L598.32 3.159973L598.32 3.159973L1.08 3.159973z" /></clipPath><clipPath id="69"><path id="" clip-rule="evenodd" transform="matrix(1 0 0 1 0 0)" d="M1.08 69.15997L598.32 69.15997L598.32 69.15997L598.32 3.159973L598.32 3.159973L1.08 3.159973z" /></clipPath><clipPath id="70"><path id="" clip-rule="evenodd" transform="matrix(1 0 0 1 0 0)" d="M1.08 69.15997L598.32 69.15997L598.32 69.15997L598.32 3.159973L598.32 3.159973L1.08 3.159973z" /></clipPath><clipPath id="71"><path id="" clip-rule="evenodd" transform="matrix(1 0 0 1 0 0)" d="M1.08 69.15997L598.32 69.15997L598.32 69.15997L598.32 3.159973L598.32 3.159973L1.08 3.159973z" /></clipPath><clipPath id="72"><path id="" clip-rule="evenodd" transform="matrix(1 0 0 1 0 0)" d="M1.08 69.15997L598.32 69.15997L598.32 69.15997L598.32 3.159973L598.32 3.159973L1.08 3.159973z" /></clipPath><clipPath id="73"><path id="" clip-rule="evenodd" transform="matrix(1 0 0 1 0 0)" d="M1.08 69.15997L598.32 69.15997L598.32 69.15997L598.32 3.159973L598.32 3.159973L1.08 3.159973z" /></clipPath><clipPath id="74"><path id="" clip-rule="evenodd" transform="matrix(1 0 0 1 0 0)" d="M1.08 69.15997L598.32 69.15997L598.32 69.15997L598.32 3.159973L598.32 3.159973L1.08 3.159973z" /></clipPath><clipPath id="75"><path id="" clip-rule="evenodd" transform="matrix(1 0 0 1 0 0)" d="M1.08 69.15997L598.32 69.15997L598.32 69.15997L598.32 3.159973L598.32 3.159973L1.08 3.159973z" /></clipPath><clipPath id="76"><path id="" clip-rule="evenodd" transform="matrix(1 0 0 1 0 0)" d="M1.08 69.15997L598.32 69.15997L598.32 69.15997L598.32 3.159973L598.32 3.159973L1.08 3.159973z" /></clipPath><clipPath id="77"><path id="" clip-rule="evenodd" transform="matrix(1 0 0 1 0 0)" d="M1.08 69.15997L598.32 69.15997L598.32 69.15997L598.32 3.159973L598.32 3.159973L1.08 3.159973z" /></clipPath><clipPath id="78"><path id="" clip-rule="evenodd" transform="matrix(1 0 0 1 0 0)" d="M38.52 108.78L558.58 108.78L558.58 108.78L558.58 90.18005L558.58 90.18005L38.52 90.18005z" /></clipPath><clipPath id="79"><path id="" clip-rule="evenodd" transform="matrix(1 0 0 1 0 0)" d="M38.52 108.78L558.58 108.78L558.58 108.78L558.58 90.18005L558.58 90.18005L38.52 90.18005z" /></clipPath><clipPath id="80"><path id="" clip-rule="evenodd" transform="matrix(1 0 0 1 0 0)" d="M38.52 108.78L558.58 108.78L558.58 108.78L558.58 90.18005L558.58 90.18005L38.52 90.18005z" /></clipPath><clipPath id="81"><path id="" clip-rule="evenodd" transform="matrix(1 0 0 1 0 0)" d="M9.88E-07 840.9996L595.32 840.9996L595.32 840.9996L595.32 -0.9203491L595.32 -0.9203491L9.88E-07 -0.9203491z" /></clipPath><clipPath id="82"><path id="" clip-rule="evenodd" transform="matrix(1 0 0 1 0 0)" d="M-2.009E-06 840.9998L595.32 840.9998L595.32 840.9998L595.32 -0.9202271L595.32 -0.9202271L-2.009E-06 -0.9202271z" /></clipPath><clipPath id="83"><path id="" clip-rule="evenodd" transform="matrix(1 0 0 1 0 0)" d="M-2.1593E-05 840.9998L595.32 840.9998L595.32 840.9998L595.32 -0.9202271L595.32 -0.9202271L-2.1593E-05 -0.9202271z" /></clipPath><clipPath id="84"><path id="" clip-rule="evenodd" transform="matrix(1 0 0 1 0 0)" d="M-5.52E-06 840.9998L595.32 840.9998L595.32 840.9998L595.32 -0.920166L595.32 -0.920166L-5.52E-06 -0.920166z" /></clipPath></defs><g transform="matrix(1.333333 0 0 1.333333 0 0)"><g clip-path="url(#1)"><g clip-path="url(#2)"></g><g clip-path="url(#3)"></g><g clip-path="url(#4)"></g><g clip-path="url(#5)"></g><g clip-path="url(#6)"></g><g clip-path="url(#7)"></g><path id="1" transform="matrix(1 0 0 -1 0 841)" d="M36.75 293.65L569.25 293.65L569.25 293.65L569.25 436.9L569.25 436.9L36.75 436.9z" stroke="none" fill="#FFFFFF" fill-rule="evenodd" /><path id="2" transform="matrix(1 0 0 -1 0 841)" d="M36.75 293.65L569.25 293.65L569.25 293.65L569.25 436.9L569.25 436.9L36.75 436.9z" stroke="#7C7C7C" stroke-width="0.5" fill="none" /><g clip-path="url(#8)"><g clip-path="url(#9)"></g><g clip-path="url(#10)"></g><g clip-path="url(#11)"></g><g clip-path="url(#12)"></g><g clip-path="url(#13)"></g><g clip-path="url(#14)"></g><g clip-path="url(#15)"></g><g clip-path="url(#16)"></g><g clip-path="url(#17)"></g><g clip-path="url(#18)"></g><g clip-path="url(#19)"></g><g clip-path="url(#20)"></g><g clip-path="url(#21)"></g><g clip-path="url(#22)"></g><g clip-path="url(#23)"></g><g clip-path="url(#24)"></g><g clip-path="url(#25)"></g></g><path id="769" transform="matrix(1 0 0 -1 0 841)" d="M38.25 95.648L185.25 95.648L185.25 95.648L185.25 280.898L185.25 280.898L38.25 280.898z" stroke="none" fill="#FFFFFF" fill-rule="evenodd" /><path id="770" transform="matrix(1 0 0 -1 0 841)" d="M38.25 95.648L185.25 95.648L185.25 95.648L185.25 280.898L185.25 280.898L38.25 280.898z" stroke="#7C7C7C" stroke-width="0.5" fill="none" /><g clip-path="url(#26)"><g clip-path="url(#27)"></g><g clip-path="url(#28)"></g><g clip-path="url(#29)"></g><g clip-path="url(#30)"></g><g clip-path="url(#31)"></g><g clip-path="url(#32)"></g><g clip-path="url(#33)"></g><g clip-path="url(#34)"></g><g clip-path="url(#35)"></g><g clip-path="url(#36)"></g><g clip-path="url(#37)"></g><g clip-path="url(#38)"></g><g clip-path="url(#39)"></g><g clip-path="url(#40)"></g><g clip-path="url(#41)"></g><g clip-path="url(#42)"></g><g clip-path="url(#43)"></g><g clip-path="url(#44)"></g><g clip-path="url(#45)"></g><g clip-path="url(#46)"></g><g clip-path="url(#47)"></g><g clip-path="url(#48)"></g><g clip-path="url(#49)"></g></g><path id="911" transform="matrix(1 0 0 -1 0 841)" d="M38.25 17.648L575.25 17.648L575.25 17.648L575.25 88.148L575.25 88.148L38.25 88.148z" stroke="none" fill="#FFFFFF" fill-rule="evenodd" /><path id="912" transform="matrix(1 0 0 -1 0 841)" d="M38.25 17.648L575.25 17.648L575.25 17.648L575.25 88.148L575.25 88.148L38.25 88.148z" stroke="#7C7C7C" stroke-width="0.5" fill="none" /><g clip-path="url(#50)"><g clip-path="url(#51)"></g><g clip-path="url(#52)"></g><g clip-path="url(#53)"></g><g clip-path="url(#54)"></g><g clip-path="url(#55)"></g><g clip-path="url(#56)"></g><g clip-path="url(#57)"></g><g clip-path="url(#58)"></g><g clip-path="url(#59)"></g><g clip-path="url(#60)"></g><g clip-path="url(#61)"></g><g clip-path="url(#62)"></g><g clip-path="url(#63)"></g><g clip-path="url(#64)"></g><g clip-path="url(#65)"></g></g><g clip-path="url(#66)"><path id="1279" transform="matrix(1 0 0 -1 0 841)" d="M0.75 767.92L598.5 767.92L598.5 767.92L598.5 841.77L598.5 841.77L0.75 841.77z" stroke="none" fill="#203864" fill-rule="evenodd" /></g><g clip-path="url(#67)"><g clip-path="url(#68)"></g><g clip-path="url(#69)"></g><g clip-path="url(#70)"></g><g clip-path="url(#71)"></g><g clip-path="url(#72)"></g><g clip-path="url(#73)"></g><g clip-path="url(#74)"></g><g clip-path="url(#75)"></g><g clip-path="url(#76)"></g><g clip-path="url(#77)"></g></g><path id="1322" transform="matrix(1 0 0 -1 0 841)" d="M38.25 728.42L558.75 728.42L558.75 728.42L558.75 754.67L558.75 754.67L38.25 754.67z" stroke="none" fill="#C00000" fill-rule="evenodd" /><g clip-path="url(#78)"><g clip-path="url(#79)"></g><g clip-path="url(#80)"></g></g><g clip-path="url(#81)"><g transform="matrix(0.3815154 0 0 0.3811539 37.075 117.5699)"><g transform="matrix(1 0 0 1 0 0)"><image x="0" y="0" xlink:href="img_08.png" width="1366" height="728" /></g></g></g><g clip-path="url(#82)"><g transform="matrix(0.4956568 0 0 0.4956461 191.25 549.6)"><g transform="matrix(1 0 0 1 0 0)"><image x="0" y="0" xlink:href="img_09.png" width="472" height="356" /></g></g></g><g clip-path="url(#83)"><g transform="matrix(0.3605363 0 0 0.3611538 348.75 651.452)"><g transform="matrix(1 0 0 1 0 0)"><image x="0" y="0" xlink:href="img_10.png" width="578" height="260" /></g></g></g><g clip-path="url(#84)"><g transform="matrix(0.3537572 0 0 0.3602696 440.25 569.855)"><g transform="matrix(1 0 0 1 0 0)"><image x="0" y="0" xlink:href="img_11.png" width="346" height="204" /></g></g></g></g></g></svg>