<svg xmlns="http://www.w3.org/2000/svg" xmlns:xlink="http://www.w3.org/1999/xlink" id="body_1" preserveAspectRatio="xMinYMin meet" viewBox="0 0 793 1121"><defs><clipPath id="1"><path id="" clip-rule="evenodd" transform="matrix(1 0 0 1 0 0)" d="M0 841L0 -0.9199829L0 -0.9199829L595.32 -0.9199829L595.32 -0.9199829L595.32 841L595.32 841L0 841z" /></clipPath><clipPath id="2"><path id="" clip-rule="evenodd" transform="matrix(1 0 0 1 0 0)" d="M2.9915E-05 840.9997L595.32 840.9997L595.32 840.9997L595.32 -0.9202881L595.32 -0.9202881L2.9915E-05 -0.9202881z" /></clipPath><clipPath id="3"><path id="" clip-rule="evenodd" transform="matrix(1 0 0 1 0 0)" d="M8.871E-06 841L595.32 841L595.32 841L595.32 -0.9199829L595.32 -0.9199829L8.871E-06 -0.9199829z" /></clipPath><clipPath id="4"><path id="" clip-rule="evenodd" transform="matrix(1 0 0 1 0 0)" d="M8.871E-06 841L595.32 841L595.32 841L595.32 -0.9199829L595.32 -0.9199829L8.871E-06 -0.9199829z" /></clipPath><clipPath id="5"><path id="" clip-rule="evenodd" transform="matrix(1 0 0 1 0 0)" d="M8.871E-06 841L595.32 841L595.32 841L595.32 -0.9199829L595.32 -0.9199829L8.871E-06 -0.9199829z" /></clipPath><clipPath id="6"><path id="" clip-rule="evenodd" transform="matrix(1 0 0 1 0 0)" d="M8.871E-06 841L595.32 841L595.32 841L595.32 -0.9199829L595.32 -0.9199829L8.871E-06 -0.9199829z" /></clipPath><clipPath id="7"><path id="" clip-rule="evenodd" transform="matrix(1 0 0 1 0 0)" d="M41.16 814.72L554.2599 814.72L554.2599 814.72L554.2599 608.42L554.2599 608.42L41.16 608.42z" /></clipPath><clipPath id="8"><path id="" clip-rule="evenodd" transform="matrix(1 0 0 1 0 0)" d="M41.16 814.72L554.2599 814.72L554.2599 814.72L554.2599 608.42L554.2599 608.42L41.16 608.42z" /></clipPath><clipPath id="9"><path id="" clip-rule="evenodd" transform="matrix(1 0 0 1 0 0)" d="M41.16 814.72L554.2599 814.72L554.2599 814.72L554.2599 608.42L554.2599 608.42L41.16 608.42z" /></clipPath><clipPath id="10"><path id="" clip-rule="evenodd" transform="matrix(1 0 0 1 0 0)" d="M41.16 814.72L554.2599 814.72L554.2599 814.72L554.2599 608.42L554.2599 608.42L41.16 608.42z" /></clipPath><clipPath id="11"><path id="" clip-rule="evenodd" transform="matrix(1 0 0 1 0 0)" d="M41.16 814.72L554.2599 814.72L554.2599 814.72L554.2599 608.42L554.2599 608.42L41.16 608.42z" /></clipPath><clipPath id="12"><path id="" clip-rule="evenodd" transform="matrix(1 0 0 1 0 0)" d="M41.16 814.72L554.2599 814.72L554.2599 814.72L554.2599 608.42L554.2599 608.42L41.16 608.42z" /></clipPath><clipPath id="13"><path id="" clip-rule="evenodd" transform="matrix(1 0 0 1 0 0)" d="M41.16 814.72L554.2599 814.72L554.2599 814.72L554.2599 608.42L554.2599 608.42L41.16 608.42z" /></clipPath><clipPath id="14"><path id="" clip-rule="evenodd" transform="matrix(1 0 0 1 0 0)" d="M41.16 814.72L554.2599 814.72L554.2599 814.72L554.2599 608.42L554.2599 608.42L41.16 608.42z" /></clipPath><clipPath id="15"><path id="" clip-rule="evenodd" transform="matrix(1 0 0 1 0 0)" d="M41.16 814.72L554.2599 814.72L554.2599 814.72L554.2599 608.42L554.2599 608.42L41.16 608.42z" /></clipPath><clipPath id="16"><path id="" clip-rule="evenodd" transform="matrix(1 0 0 1 0 0)" d="M41.16 814.72L554.2599 814.72L554.2599 814.72L554.2599 608.42L554.2599 608.42L41.16 608.42z" /></clipPath><clipPath id="17"><path id="" clip-rule="evenodd" transform="matrix(1 0 0 1 0 0)" d="M41.16 814.72L554.2599 814.72L554.2599 814.72L554.2599 608.42L554.2599 608.42L41.16 608.42z" /></clipPath><clipPath id="18"><path id="" clip-rule="evenodd" transform="matrix(1 0 0 1 0 0)" d="M41.16 814.72L554.2599 814.72L554.2599 814.72L554.2599 608.42L554.2599 608.42L41.16 608.42z" /></clipPath><clipPath id="19"><path id="" clip-rule="evenodd" transform="matrix(1 0 0 1 0 0)" d="M41.16 814.72L554.2599 814.72L554.2599 814.72L554.2599 608.42L554.2599 608.42L41.16 608.42z" /></clipPath><clipPath id="20"><path id="" clip-rule="evenodd" transform="matrix(1 0 0 1 0 0)" d="M41.16 814.72L554.2599 814.72L554.2599 814.72L554.2599 608.42L554.2599 608.42L41.16 608.42z" /></clipPath><clipPath id="21"><path id="" clip-rule="evenodd" transform="matrix(1 0 0 1 0 0)" d="M41.16 814.72L554.2599 814.72L554.2599 814.72L554.2599 608.42L554.2599 608.42L41.16 608.42z" /></clipPath><clipPath id="22"><path id="" clip-rule="evenodd" transform="matrix(1 0 0 1 0 0)" d="M41.16 814.72L554.2599 814.72L554.2599 814.72L554.2599 608.42L554.2599 608.42L41.16 608.42z" /></clipPath><clipPath id="23"><path id="" clip-rule="evenodd" transform="matrix(1 0 0 1 0 0)" d="M41.16 814.72L554.2599 814.72L554.2599 814.72L554.2599 608.42L554.2599 608.42L41.16 608.42z" /></clipPath><clipPath id="24"><path id="" clip-rule="evenodd" transform="matrix(1 0 0 1 0 0)" d="M41.16 814.72L554.2599 814.72L554.2599 814.72L554.2599 608.42L554.2599 608.42L41.16 608.42z" /></clipPath><clipPath id="25"><path id="" clip-rule="evenodd" transform="matrix(1 0 0 1 0 0)" d="M41.16 814.72L554.2599 814.72L554.2599 814.72L554.2599 608.42L554.2599 608.42L41.16 608.42z" /></clipPath><clipPath id="26"><path id="" clip-rule="evenodd" transform="matrix(1 0 0 1 0 0)" d="M41.16 814.72L554.2599 814.72L554.2599 814.72L554.2599 608.42L554.2599 608.42L41.16 608.42z" /></clipPath><clipPath id="27"><path id="" clip-rule="evenodd" transform="matrix(1 0 0 1 0 0)" d="M41.16 814.72L554.2599 814.72L554.2599 814.72L554.2599 608.42L554.2599 608.42L41.16 608.42z" /></clipPath><clipPath id="28"><path id="" clip-rule="evenodd" transform="matrix(1 0 0 1 0 0)" d="M41.16 814.72L554.2599 814.72L554.2599 814.72L554.2599 608.42L554.2599 608.42L41.16 608.42z" /></clipPath><clipPath id="29"><path id="" clip-rule="evenodd" transform="matrix(1 0 0 1 0 0)" d="M41.16 814.72L554.2599 814.72L554.2599 814.72L554.2599 608.42L554.2599 608.42L41.16 608.42z" /></clipPath><clipPath id="30"><path id="" clip-rule="evenodd" transform="matrix(1 0 0 1 0 0)" d="M41.16 814.72L554.2599 814.72L554.2599 814.72L554.2599 608.42L554.2599 608.42L41.16 608.42z" /></clipPath><clipPath id="31"><path id="" clip-rule="evenodd" transform="matrix(1 0 0 1 0 0)" d="M41.16 814.72L554.2599 814.72L554.2599 814.72L554.2599 608.42L554.2599 608.42L41.16 608.42z" /></clipPath><clipPath id="32"><path id="" clip-rule="evenodd" transform="matrix(1 0 0 1 0 0)" d="M41.16 814.72L554.2599 814.72L554.2599 814.72L554.2599 608.42L554.2599 608.42L41.16 608.42z" /></clipPath><clipPath id="33"><path id="" clip-rule="evenodd" transform="matrix(1 0 0 1 0 0)" d="M41.16 814.72L554.2599 814.72L554.2599 814.72L554.2599 608.42L554.2599 608.42L41.16 608.42z" /></clipPath><clipPath id="34"><path id="" clip-rule="evenodd" transform="matrix(1 0 0 1 0 0)" d="M41.16 814.72L554.2599 814.72L554.2599 814.72L554.2599 608.42L554.2599 608.42L41.16 608.42z" /></clipPath><clipPath id="35"><path id="" clip-rule="evenodd" transform="matrix(1 0 0 1 0 0)" d="M41.16 814.72L554.2599 814.72L554.2599 814.72L554.2599 608.42L554.2599 608.42L41.16 608.42z" /></clipPath><clipPath id="36"><path id="" clip-rule="evenodd" transform="matrix(1 0 0 1 0 0)" d="M41.16 814.72L554.2599 814.72L554.2599 814.72L554.2599 608.42L554.2599 608.42L41.16 608.42z" /></clipPath><clipPath id="37"><path id="" clip-rule="evenodd" transform="matrix(1 0 0 1 0 0)" d="M41.16 814.72L554.2599 814.72L554.2599 814.72L554.2599 608.42L554.2599 608.42L41.16 608.42z" /></clipPath><clipPath id="38"><path id="" clip-rule="evenodd" transform="matrix(1 0 0 1 0 0)" d="M41.16 814.72L554.2599 814.72L554.2599 814.72L554.2599 608.42L554.2599 608.42L41.16 608.42z" /></clipPath><clipPath id="39"><path id="" clip-rule="evenodd" transform="matrix(1 0 0 1 0 0)" d="M25.08 75.40002L566.74 75.40002L566.74 75.40002L566.74 24.76001L566.74 24.76001L25.08 24.76001z" /></clipPath><clipPath id="40"><path id="" clip-rule="evenodd" transform="matrix(1 0 0 1 0 0)" d="M25.08 75.40002L566.74 75.40002L566.74 75.40002L566.74 24.76001L566.74 24.76001L25.08 24.76001z" /></clipPath><clipPath id="41"><path id="" clip-rule="evenodd" transform="matrix(1 0 0 1 0 0)" d="M25.08 75.40002L566.74 75.40002L566.74 75.40002L566.74 24.76001L566.74 24.76001L25.08 24.76001z" /></clipPath><clipPath id="42"><path id="" clip-rule="evenodd" transform="matrix(1 0 0 1 0 0)" d="M25.08 75.40002L566.74 75.40002L566.74 75.40002L566.74 24.76001L566.74 24.76001L25.08 24.76001z" /></clipPath><clipPath id="43"><path id="" clip-rule="evenodd" transform="matrix(1 0 0 1 0 0)" d="M25.08 75.40002L566.74 75.40002L566.74 75.40002L566.74 24.76001L566.74 24.76001L25.08 24.76001z" /></clipPath><clipPath id="44"><path id="" clip-rule="evenodd" transform="matrix(1 0 0 1 0 0)" d="M25.08 75.40002L566.74 75.40002L566.74 75.40002L566.74 24.76001L566.74 24.76001L25.08 24.76001z" /></clipPath><clipPath id="45"><path id="" clip-rule="evenodd" transform="matrix(1 0 0 1 0 0)" d="M-4.255E-06 840.9997L595.32 840.9997L595.32 840.9997L595.32 -0.9202881L595.32 -0.9202881L-4.255E-06 -0.9202881z" /></clipPath><clipPath id="46"><path id="" clip-rule="evenodd" transform="matrix(1 0 0 1 0 0)" d="M1.1437E-05 840.9998L595.32 840.9998L595.32 840.9998L595.32 -0.9202271L595.32 -0.9202271L1.1437E-05 -0.9202271z" /></clipPath><clipPath id="47"><path id="" clip-rule="evenodd" transform="matrix(1 0 0 1 0 0)" d="M-2.409E-06 840.9998L595.32 840.9998L595.32 840.9998L595.32 -0.9202271L595.32 -0.9202271L-2.409E-06 -0.9202271z" /></clipPath><clipPath id="48"><path id="" clip-rule="evenodd" transform="matrix(1 0 0 1 0 0)" d="M1.8049E-05 790.6L594.36 790.6L594.36 790.6L594.36 770.32L594.36 770.32L1.8049E-05 770.32z" /></clipPath><clipPath id="49"><path id="" clip-rule="evenodd" transform="matrix(1 0 0 1 0 0)" d="M-10.32 790.6L594.36 790.6L594.36 790.6L594.36 770.32L594.36 770.32L-10.32 770.32z" /></clipPath><clipPath id="50"><path id="" clip-rule="evenodd" transform="matrix(1 0 0 1 0 0)" d="M-10.32 790.6L594.36 790.6L594.36 790.6L594.36 770.32L594.36 770.32L-10.32 770.32z" /></clipPath><clipPath id="51"><path id="" clip-rule="evenodd" transform="matrix(1 0 0 1 0 0)" d="M-10.32 790.6L594.36 790.6L594.36 790.6L594.36 770.32L594.36 770.32L-10.32 770.32z" /></clipPath></defs><g transform="matrix(1.333333 0 0 1.333333 0 0)"><g clip-path="url(#1)"><g clip-path="url(#2)"><g transform="matrix(0.3273196 0 0 0.327381 308.95 460.01)"><g transform="matrix(1 0 0 1 0 0)"><image x="0" y="0" xlink:href="img_01.png" width="388" height="378" /></g></g></g><g clip-path="url(#3)"></g><g clip-path="url(#4)"></g><g clip-path="url(#5)"></g><g clip-path="url(#6)"></g><path id="2" transform="matrix(1 0 0 -1 0 841)" d="M41.15 22.789L554.15 22.789L554.15 22.789L554.15 236.339L554.15 236.339L41.15 236.339z" stroke="none" fill="#9DC3E6" fill-rule="evenodd" /><g clip-path="url(#7)"><g clip-path="url(#8)"></g><g clip-path="url(#9)"></g><g clip-path="url(#10)"></g><g clip-path="url(#11)"></g><g clip-path="url(#12)"></g><g clip-path="url(#13)"></g><g clip-path="url(#14)"></g><g clip-path="url(#15)"></g><g clip-path="url(#16)"></g><g clip-path="url(#17)"></g><g clip-path="url(#18)"></g><g clip-path="url(#19)"></g><g clip-path="url(#20)"></g><g clip-path="url(#21)"></g><g clip-path="url(#22)"></g><g clip-path="url(#23)"></g><g clip-path="url(#24)"></g><g clip-path="url(#25)"></g><g clip-path="url(#26)"></g><g clip-path="url(#27)"></g><g clip-path="url(#28)"></g><g clip-path="url(#29)"></g><g clip-path="url(#30)"></g><g clip-path="url(#31)"></g><g clip-path="url(#32)"></g><g clip-path="url(#33)"></g><g clip-path="url(#34)"></g><g clip-path="url(#35)"></g><g clip-path="url(#36)"></g><g clip-path="url(#37)"></g><g clip-path="url(#38)"></g></g><path id="554" transform="matrix(1 0 0 -1 0 841)" d="M24.75 761.67L567 761.67L567 761.67L567 820.17L567 820.17L24.75 820.17z" stroke="none" fill="#203864" fill-rule="evenodd" /><g clip-path="url(#39)"><g clip-path="url(#40)"></g><g clip-path="url(#41)"></g><g clip-path="url(#42)"></g><g clip-path="url(#43)"></g><g clip-path="url(#44)"></g></g><g clip-path="url(#45)"><g transform="matrix(0.3594541 0 0 0.3597502 57.48 113.68)"><g transform="matrix(1 0 0 1 0 0)"><image x="0" y="0" xlink:href="img_02.png" width="1209" height="1201" /></g></g></g><g clip-path="url(#46)"><g transform="matrix(0.3274463 0 0 0.3284386 440.35 477.21)"><g transform="matrix(1 0 0 1 0 0)"><image x="0" y="0" xlink:href="img_03.png" width="419" height="269" /></g></g></g><g clip-path="url(#47)"><path id="568" transform="matrix(1 0 0 -1 0 841)" d="M-10.7 46.589L594.55 46.589L594.55 46.589L594.55 74.739L594.55 74.739L-10.7 74.739z" stroke="none" fill="#C00000" fill-rule="evenodd" /></g><g clip-path="url(#48)"><g clip-path="url(#49)"></g><g clip-path="url(#50)"></g><g clip-path="url(#51)"></g></g></g></g></svg>