<svg xmlns="http://www.w3.org/2000/svg" xmlns:xlink="http://www.w3.org/1999/xlink" id="body_4" preserveAspectRatio="xMinYMin meet" viewBox="0 0 793 1121"><defs><clipPath id="1"><path id="" clip-rule="evenodd" transform="matrix(1 0 0 1 0 0)" d="M0 841L0 -0.9199829L0 -0.9199829L595.32 -0.9199829L595.32 -0.9199829L595.32 841L595.32 841L0 841z" /></clipPath><clipPath id="2"><path id="" clip-rule="evenodd" transform="matrix(1 0 0 1 0 0)" d="M8.871E-06 841L595.32 841L595.32 841L595.32 -0.9199829L595.32 -0.9199829L8.871E-06 -0.9199829z" /></clipPath><clipPath id="3"><path id="" clip-rule="evenodd" transform="matrix(1 0 0 1 0 0)" d="M8.871E-06 841L595.32 841L595.32 841L595.32 -0.9199829L595.32 -0.9199829L8.871E-06 -0.9199829z" /></clipPath><clipPath id="4"><path id="" clip-rule="evenodd" transform="matrix(1 0 0 1 0 0)" d="M-3E-09 840.9998L595.32 840.9998L595.32 840.9998L595.32 -0.920166L595.32 -0.920166L-3E-09 -0.920166z" /></clipPath><clipPath id="5"><path id="" clip-rule="evenodd" transform="matrix(1 0 0 1 0 0)" d="M1.8 68.91998L595.32 68.91998L595.32 68.91998L595.32 3.039978L595.32 3.039978L1.8 3.039978z" /></clipPath><clipPath id="6"><path id="" clip-rule="evenodd" transform="matrix(1 0 0 1 0 0)" d="M1.8 68.91998L599.04 68.91998L599.04 68.91998L599.04 3.039978L599.04 3.039978L1.8 3.039978z" /></clipPath><clipPath id="7"><path id="" clip-rule="evenodd" transform="matrix(1 0 0 1 0 0)" d="M1.8 68.91998L599.04 68.91998L599.04 68.91998L599.04 3.039978L599.04 3.039978L1.8 3.039978z" /></clipPath><clipPath id="8"><path id="" clip-rule="evenodd" transform="matrix(1 0 0 1 0 0)" d="M1.8 68.91998L599.04 68.91998L599.04 68.91998L599.04 3.039978L599.04 3.039978L1.8 3.039978z" /></clipPath><clipPath id="9"><path id="" clip-rule="evenodd" transform="matrix(1 0 0 1 0 0)" d="M1.8 68.91998L599.04 68.91998L599.04 68.91998L599.04 3.039978L599.04 3.039978L1.8 3.039978z" /></clipPath><clipPath id="10"><path id="" clip-rule="evenodd" transform="matrix(1 0 0 1 0 0)" d="M1.8 68.91998L599.04 68.91998L599.04 68.91998L599.04 3.039978L599.04 3.039978L1.8 3.039978z" /></clipPath><clipPath id="11"><path id="" clip-rule="evenodd" transform="matrix(1 0 0 1 0 0)" d="M1.8 68.91998L599.04 68.91998L599.04 68.91998L599.04 3.039978L599.04 3.039978L1.8 3.039978z" /></clipPath><clipPath id="12"><path id="" clip-rule="evenodd" transform="matrix(1 0 0 1 0 0)" d="M1.8 68.91998L599.04 68.91998L599.04 68.91998L599.04 3.039978L599.04 3.039978L1.8 3.039978z" /></clipPath><clipPath id="13"><path id="" clip-rule="evenodd" transform="matrix(1 0 0 1 0 0)" d="M1.8 68.91998L599.04 68.91998L599.04 68.91998L599.04 3.039978L599.04 3.039978L1.8 3.039978z" /></clipPath><clipPath id="14"><path id="" clip-rule="evenodd" transform="matrix(1 0 0 1 0 0)" d="M1.8 68.91998L599.04 68.91998L599.04 68.91998L599.04 3.039978L599.04 3.039978L1.8 3.039978z" /></clipPath><clipPath id="15"><path id="" clip-rule="evenodd" transform="matrix(1 0 0 1 0 0)" d="M1.8 68.91998L599.04 68.91998L599.04 68.91998L599.04 3.039978L599.04 3.039978L1.8 3.039978z" /></clipPath><clipPath id="16"><path id="" clip-rule="evenodd" transform="matrix(1 0 0 1 0 0)" d="M44.52 103.26L564.58 103.26L564.58 103.26L564.58 84.66003L564.58 84.66003L44.52 84.66003z" /></clipPath><clipPath id="17"><path id="" clip-rule="evenodd" transform="matrix(1 0 0 1 0 0)" d="M44.52 103.26L564.58 103.26L564.58 103.26L564.58 84.66003L564.58 84.66003L44.52 84.66003z" /></clipPath><clipPath id="18"><path id="" clip-rule="evenodd" transform="matrix(1 0 0 1 0 0)" d="M44.52 103.26L564.58 103.26L564.58 103.26L564.58 84.66003L564.58 84.66003L44.52 84.66003z" /></clipPath><clipPath id="19"><path id="" clip-rule="evenodd" transform="matrix(1 0 0 1 0 0)" d="M-1.8E-08 840.9996L595.32 840.9996L595.32 840.9996L595.32 -0.9203491L595.32 -0.9203491L-1.8E-08 -0.9203491z" /></clipPath><clipPath id="20"><path id="" clip-rule="evenodd" transform="matrix(1 0 0 1 0 0)" d="M-6.813E-06 840.9998L595.32 840.9998L595.32 840.9998L595.32 -0.9202271L595.32 -0.9202271L-6.813E-06 -0.9202271z" /></clipPath><clipPath id="21"><path id="" clip-rule="evenodd" transform="matrix(1 0 0 1 0 0)" d="M47.52 462.59L550.3 462.59L550.3 462.59L550.3 398.246L550.3 398.246L47.52 398.246z" /></clipPath><clipPath id="22"><path id="" clip-rule="evenodd" transform="matrix(1 0 0 1 0 0)" d="M47.52 462.59L550.3 462.59L550.3 462.59L550.3 398.246L550.3 398.246L47.52 398.246z" /></clipPath><clipPath id="23"><path id="" clip-rule="evenodd" transform="matrix(1 0 0 1 0 0)" d="M47.52 462.59L550.3 462.59L550.3 462.59L550.3 398.246L550.3 398.246L47.52 398.246z" /></clipPath><clipPath id="24"><path id="" clip-rule="evenodd" transform="matrix(1 0 0 1 0 0)" d="M47.52 462.59L550.3 462.59L550.3 462.59L550.3 398.246L550.3 398.246L47.52 398.246z" /></clipPath><clipPath id="25"><path id="" clip-rule="evenodd" transform="matrix(1 0 0 1 0 0)" d="M47.52 462.59L550.3 462.59L550.3 462.59L550.3 398.246L550.3 398.246L47.52 398.246z" /></clipPath><clipPath id="26"><path id="" clip-rule="evenodd" transform="matrix(1 0 0 1 0 0)" d="M47.52 462.59L550.3 462.59L550.3 462.59L550.3 398.246L550.3 398.246L47.52 398.246z" /></clipPath><clipPath id="27"><path id="" clip-rule="evenodd" transform="matrix(1 0 0 1 0 0)" d="M47.52 462.59L550.3 462.59L550.3 462.59L550.3 398.246L550.3 398.246L47.52 398.246z" /></clipPath><clipPath id="28"><path id="" clip-rule="evenodd" transform="matrix(1 0 0 1 0 0)" d="M47.52 462.59L550.3 462.59L550.3 462.59L550.3 398.246L550.3 398.246L47.52 398.246z" /></clipPath><clipPath id="29"><path id="" clip-rule="evenodd" transform="matrix(1 0 0 1 0 0)" d="M47.52 462.59L550.3 462.59L550.3 462.59L550.3 398.246L550.3 398.246L47.52 398.246z" /></clipPath><clipPath id="30"><path id="" clip-rule="evenodd" transform="matrix(1 0 0 1 0 0)" d="M47.52 462.59L550.3 462.59L550.3 462.59L550.3 398.246L550.3 398.246L47.52 398.246z" /></clipPath><clipPath id="31"><path id="" clip-rule="evenodd" transform="matrix(1 0 0 1 0 0)" d="M47.52 462.59L550.3 462.59L550.3 462.59L550.3 398.246L550.3 398.246L47.52 398.246z" /></clipPath><clipPath id="32"><path id="" clip-rule="evenodd" transform="matrix(1 0 0 1 0 0)" d="M47.52 462.59L550.3 462.59L550.3 462.59L550.3 398.246L550.3 398.246L47.52 398.246z" /></clipPath><clipPath id="33"><path id="" clip-rule="evenodd" transform="matrix(1 0 0 1 0 0)" d="M47.52 462.59L550.3 462.59L550.3 462.59L550.3 398.246L550.3 398.246L47.52 398.246z" /></clipPath><clipPath id="34"><path id="" clip-rule="evenodd" transform="matrix(1 0 0 1 0 0)" d="M47.52 462.59L550.3 462.59L550.3 462.59L550.3 398.246L550.3 398.246L47.52 398.246z" /></clipPath><clipPath id="35"><path id="" clip-rule="evenodd" transform="matrix(1 0 0 1 0 0)" d="M269.57 550.31L548.14 550.31L548.14 550.31L548.14 485.27L548.14 485.27L269.57 485.27z" /></clipPath><clipPath id="36"><path id="" clip-rule="evenodd" transform="matrix(1 0 0 1 0 0)" d="M269.57 550.31L548.14 550.31L548.14 550.31L548.14 485.27L548.14 485.27L269.57 485.27z" /></clipPath><clipPath id="37"><path id="" clip-rule="evenodd" transform="matrix(1 0 0 1 0 0)" d="M269.57 550.31L548.14 550.31L548.14 550.31L548.14 485.27L548.14 485.27L269.57 485.27z" /></clipPath><clipPath id="38"><path id="" clip-rule="evenodd" transform="matrix(1 0 0 1 0 0)" d="M269.57 550.31L548.14 550.31L548.14 550.31L548.14 485.27L548.14 485.27L269.57 485.27z" /></clipPath><clipPath id="39"><path id="" clip-rule="evenodd" transform="matrix(1 0 0 1 0 0)" d="M269.57 550.31L548.14 550.31L548.14 550.31L548.14 485.27L548.14 485.27L269.57 485.27z" /></clipPath><clipPath id="40"><path id="" clip-rule="evenodd" transform="matrix(1 0 0 1 0 0)" d="M269.57 550.31L548.14 550.31L548.14 550.31L548.14 485.27L548.14 485.27L269.57 485.27z" /></clipPath><clipPath id="41"><path id="" clip-rule="evenodd" transform="matrix(1 0 0 1 0 0)" d="M269.57 550.31L548.14 550.31L548.14 550.31L548.14 485.27L548.14 485.27L269.57 485.27z" /></clipPath><clipPath id="42"><path id="" clip-rule="evenodd" transform="matrix(1 0 0 1 0 0)" d="M269.57 550.31L548.14 550.31L548.14 550.31L548.14 485.27L548.14 485.27L269.57 485.27z" /></clipPath><clipPath id="43"><path id="" clip-rule="evenodd" transform="matrix(1 0 0 1 0 0)" d="M269.57 550.31L548.14 550.31L548.14 550.31L548.14 485.27L548.14 485.27L269.57 485.27z" /></clipPath><clipPath id="44"><path id="" clip-rule="evenodd" transform="matrix(1 0 0 1 0 0)" d="M43.8 771.64L559.18 771.64L559.18 771.64L559.18 687.736L559.18 687.736L43.8 687.736z" /></clipPath><clipPath id="45"><path id="" clip-rule="evenodd" transform="matrix(1 0 0 1 0 0)" d="M43.8 771.64L559.18 771.64L559.18 771.64L559.18 687.736L559.18 687.736L43.8 687.736z" /></clipPath><clipPath id="46"><path id="" clip-rule="evenodd" transform="matrix(1 0 0 1 0 0)" d="M43.8 771.64L559.18 771.64L559.18 771.64L559.18 687.736L559.18 687.736L43.8 687.736z" /></clipPath><clipPath id="47"><path id="" clip-rule="evenodd" transform="matrix(1 0 0 1 0 0)" d="M43.8 771.64L559.18 771.64L559.18 771.64L559.18 687.736L559.18 687.736L43.8 687.736z" /></clipPath><clipPath id="48"><path id="" clip-rule="evenodd" transform="matrix(1 0 0 1 0 0)" d="M43.8 771.64L559.18 771.64L559.18 771.64L559.18 687.736L559.18 687.736L43.8 687.736z" /></clipPath><clipPath id="49"><path id="" clip-rule="evenodd" transform="matrix(1 0 0 1 0 0)" d="M43.8 771.64L559.18 771.64L559.18 771.64L559.18 687.736L559.18 687.736L43.8 687.736z" /></clipPath><clipPath id="50"><path id="" clip-rule="evenodd" transform="matrix(1 0 0 1 0 0)" d="M43.8 771.64L559.18 771.64L559.18 771.64L559.18 687.736L559.18 687.736L43.8 687.736z" /></clipPath><clipPath id="51"><path id="" clip-rule="evenodd" transform="matrix(1 0 0 1 0 0)" d="M43.8 771.64L559.18 771.64L559.18 771.64L559.18 687.736L559.18 687.736L43.8 687.736z" /></clipPath><clipPath id="52"><path id="" clip-rule="evenodd" transform="matrix(1 0 0 1 0 0)" d="M43.8 771.64L559.18 771.64L559.18 771.64L559.18 687.736L559.18 687.736L43.8 687.736z" /></clipPath><clipPath id="53"><path id="" clip-rule="evenodd" transform="matrix(1 0 0 1 0 0)" d="M43.8 771.64L559.18 771.64L559.18 771.64L559.18 687.736L559.18 687.736L43.8 687.736z" /></clipPath><clipPath id="54"><path id="" clip-rule="evenodd" transform="matrix(1 0 0 1 0 0)" d="M43.8 771.64L559.18 771.64L559.18 771.64L559.18 687.736L559.18 687.736L43.8 687.736z" /></clipPath><clipPath id="55"><path id="" clip-rule="evenodd" transform="matrix(1 0 0 1 0 0)" d="M43.8 771.64L559.18 771.64L559.18 771.64L559.18 687.736L559.18 687.736L43.8 687.736z" /></clipPath><clipPath id="56"><path id="" clip-rule="evenodd" transform="matrix(1 0 0 1 0 0)" d="M43.8 771.64L559.18 771.64L559.18 771.64L559.18 687.736L559.18 687.736L43.8 687.736z" /></clipPath><clipPath id="57"><path id="" clip-rule="evenodd" transform="matrix(1 0 0 1 0 0)" d="M43.8 771.64L559.18 771.64L559.18 771.64L559.18 687.736L559.18 687.736L43.8 687.736z" /></clipPath><clipPath id="58"><path id="" clip-rule="evenodd" transform="matrix(1 0 0 1 0 0)" d="M43.8 771.64L559.18 771.64L559.18 771.64L559.18 687.736L559.18 687.736L43.8 687.736z" /></clipPath><clipPath id="59"><path id="" clip-rule="evenodd" transform="matrix(1 0 0 1 0 0)" d="M43.8 771.64L559.18 771.64L559.18 771.64L559.18 687.736L559.18 687.736L43.8 687.736z" /></clipPath><clipPath id="60"><path id="" clip-rule="evenodd" transform="matrix(1 0 0 1 0 0)" d="M43.8 771.64L559.18 771.64L559.18 771.64L559.18 687.736L559.18 687.736L43.8 687.736z" /></clipPath><clipPath id="61"><path id="" clip-rule="evenodd" transform="matrix(1 0 0 1 0 0)" d="M43.8 771.64L559.18 771.64L559.18 771.64L559.18 687.736L559.18 687.736L43.8 687.736z" /></clipPath><clipPath id="62"><path id="" clip-rule="evenodd" transform="matrix(1 0 0 1 0 0)" d="M43.8 771.64L559.18 771.64L559.18 771.64L559.18 687.736L559.18 687.736L43.8 687.736z" /></clipPath><clipPath id="63"><path id="" clip-rule="evenodd" transform="matrix(1 0 0 1 0 0)" d="M-1.877E-06 840.9997L595.32 840.9997L595.32 840.9997L595.32 -0.9202881L595.32 -0.9202881L-1.877E-06 -0.9202881z" /></clipPath><clipPath id="64"><path id="" clip-rule="evenodd" transform="matrix(1 0 0 1 0 0)" d="M-6.09E-07 840.9998L595.32 840.9998L595.32 840.9998L595.32 -0.9202271L595.32 -0.9202271L-6.09E-07 -0.9202271z" /></clipPath><clipPath id="65"><path id="" clip-rule="evenodd" transform="matrix(1 0 0 1 0 0)" d="M9.493E-06 840.9998L595.32 840.9998L595.32 840.9998L595.32 -0.9202271L595.32 -0.9202271L9.493E-06 -0.9202271z" /></clipPath><clipPath id="66"><path id="" clip-rule="evenodd" transform="matrix(1 0 0 1 0 0)" d="M2.296E-06 840.9998L595.32 840.9998L595.32 840.9998L595.32 -0.9202271L595.32 -0.9202271L2.296E-06 -0.9202271z" /></clipPath><clipPath id="67"><path id="" clip-rule="evenodd" transform="matrix(1 0 0 1 0 0)" d="M45.24 672.62L281.81 672.62L281.81 672.62L281.81 581.3L281.81 581.3L45.24 581.3z" /></clipPath><clipPath id="68"><path id="" clip-rule="evenodd" transform="matrix(1 0 0 1 0 0)" d="M45.24 672.62L281.81 672.62L281.81 672.62L281.81 581.3L281.81 581.3L45.24 581.3z" /></clipPath><clipPath id="69"><path id="" clip-rule="evenodd" transform="matrix(1 0 0 1 0 0)" d="M45.24 672.62L281.81 672.62L281.81 672.62L281.81 581.3L281.81 581.3L45.24 581.3z" /></clipPath><clipPath id="70"><path id="" clip-rule="evenodd" transform="matrix(1 0 0 1 0 0)" d="M45.24 672.62L281.81 672.62L281.81 672.62L281.81 581.3L281.81 581.3L45.24 581.3z" /></clipPath><clipPath id="71"><path id="" clip-rule="evenodd" transform="matrix(1 0 0 1 0 0)" d="M45.24 672.62L281.81 672.62L281.81 672.62L281.81 581.3L281.81 581.3L45.24 581.3z" /></clipPath><clipPath id="72"><path id="" clip-rule="evenodd" transform="matrix(1 0 0 1 0 0)" d="M45.24 672.62L281.81 672.62L281.81 672.62L281.81 581.3L281.81 581.3L45.24 581.3z" /></clipPath><clipPath id="73"><path id="" clip-rule="evenodd" transform="matrix(1 0 0 1 0 0)" d="M45.24 672.62L281.81 672.62L281.81 672.62L281.81 581.3L281.81 581.3L45.24 581.3z" /></clipPath><clipPath id="74"><path id="" clip-rule="evenodd" transform="matrix(1 0 0 1 0 0)" d="M45.24 672.62L281.81 672.62L281.81 672.62L281.81 581.3L281.81 581.3L45.24 581.3z" /></clipPath><clipPath id="75"><path id="" clip-rule="evenodd" transform="matrix(1 0 0 1 0 0)" d="M45.24 672.62L281.81 672.62L281.81 672.62L281.81 581.3L281.81 581.3L45.24 581.3z" /></clipPath><clipPath id="76"><path id="" clip-rule="evenodd" transform="matrix(1 0 0 1 0 0)" d="M45.24 672.62L281.81 672.62L281.81 672.62L281.81 581.3L281.81 581.3L45.24 581.3z" /></clipPath><clipPath id="77"><path id="" clip-rule="evenodd" transform="matrix(1 0 0 1 0 0)" d="M45.24 672.62L281.81 672.62L281.81 672.62L281.81 581.3L281.81 581.3L45.24 581.3z" /></clipPath><clipPath id="78"><path id="" clip-rule="evenodd" transform="matrix(1 0 0 1 0 0)" d="M45.24 672.62L281.81 672.62L281.81 672.62L281.81 581.3L281.81 581.3L45.24 581.3z" /></clipPath><clipPath id="79"><path id="" clip-rule="evenodd" transform="matrix(1 0 0 1 0 0)" d="M45.24 672.62L281.81 672.62L281.81 672.62L281.81 581.3L281.81 581.3L45.24 581.3z" /></clipPath></defs><g transform="matrix(1.333333 0 0 1.333333 0 0)"><g clip-path="url(#1)"><g clip-path="url(#2)"></g><g clip-path="url(#3)"></g><g clip-path="url(#4)"><path id="1" transform="matrix(1 0 0 -1 0 841)" d="M1.5 768.07L599.25 768.07L599.25 768.07L599.25 841.92L599.25 841.92L1.5 841.92z" stroke="none" fill="#203864" fill-rule="evenodd" /></g><g clip-path="url(#5)"><g clip-path="url(#6)"></g><g clip-path="url(#7)"></g><g clip-path="url(#8)"></g><g clip-path="url(#9)"></g><g clip-path="url(#10)"></g><g clip-path="url(#11)"></g><g clip-path="url(#12)"></g><g clip-path="url(#13)"></g><g clip-path="url(#14)"></g><g clip-path="url(#15)"></g></g><path id="44" transform="matrix(1 0 0 -1 0 841)" d="M44.25 733.92L564.75 733.92L564.75 733.92L564.75 760.17L564.75 760.17L44.25 760.17z" stroke="none" fill="#C00000" fill-rule="evenodd" /><g clip-path="url(#16)"><g clip-path="url(#17)"></g><g clip-path="url(#18)"></g></g><g clip-path="url(#19)"><g transform="matrix(0.3239062 0 0 0.3271277 45 113.08)"><g transform="matrix(1 0 0 1 0 0)"><image x="0" y="0" xlink:href="img_13.png" width="1600" height="846" /></g></g></g><g clip-path="url(#20)"><g transform="matrix(0.502445 0 0 0.5800923 132 159.58)"><g transform="matrix(1 0 0 1 0 0)"><image x="0" y="0" xlink:href="img_14.png" width="409" height="325" /></g></g></g><path id="62" transform="matrix(1 0 0 -1 0 841)" d="M47.25 374.67L550.5 374.67L550.5 374.67L550.5 446.67L550.5 446.67L47.25 446.67z" stroke="none" fill="#FFFFFF" fill-rule="evenodd" /><path id="63" transform="matrix(1 0 0 -1 0 841)" d="M47.25 374.67L550.5 374.67L550.5 374.67L550.5 446.67L550.5 446.67L47.25 446.67z" stroke="#7C7C7C" stroke-width="0.5" fill="none" /><g clip-path="url(#21)"><g clip-path="url(#22)"></g><g clip-path="url(#23)"></g><g clip-path="url(#24)"></g><g clip-path="url(#25)"></g><g clip-path="url(#26)"></g><g clip-path="url(#27)"></g><g clip-path="url(#28)"></g><g clip-path="url(#29)"></g><g clip-path="url(#30)"></g><g clip-path="url(#31)"></g><g clip-path="url(#32)"></g><g clip-path="url(#33)"></g><g clip-path="url(#34)"></g></g><path id="343" transform="matrix(1 0 0 -1 0 841)" d="M269.25 286.92L548.25 286.92L548.25 286.92L548.25 359.67L548.25 359.67L269.25 359.67z" stroke="none" fill="#FFFFFF" fill-rule="evenodd" /><path id="344" transform="matrix(1 0 0 -1 0 841)" d="M269.25 286.92L548.25 286.92L548.25 286.92L548.25 359.67L548.25 359.67L269.25 359.67z" stroke="#7C7C7C" stroke-width="0.5" fill="none" /><g clip-path="url(#35)"><g clip-path="url(#36)"></g><g clip-path="url(#37)"></g><g clip-path="url(#38)"></g><g clip-path="url(#39)"></g><g clip-path="url(#40)"></g><g clip-path="url(#41)"></g><g clip-path="url(#42)"></g><g clip-path="url(#43)"></g></g><path id="506" transform="matrix(1 0 0 -1 0 841)" d="M43.5 65.67L559.3 65.67L559.3 65.67L559.3 157.17L559.3 157.17L43.5 157.17z" stroke="none" fill="#FFFFFF" fill-rule="evenodd" /><path id="507" transform="matrix(1 0 0 -1 0 841)" d="M43.5 65.67L559.3 65.67L559.3 65.67L559.3 157.17L559.3 157.17L43.5 157.17z" stroke="#7C7C7C" stroke-width="0.5" fill="none" /><g clip-path="url(#44)"><g clip-path="url(#45)"></g><g clip-path="url(#46)"></g><g clip-path="url(#47)"></g><g clip-path="url(#48)"></g><g clip-path="url(#49)"></g><g clip-path="url(#50)"></g><g clip-path="url(#51)"></g><g clip-path="url(#52)"></g><g clip-path="url(#53)"></g><g clip-path="url(#54)"></g><g clip-path="url(#55)"></g><g clip-path="url(#56)"></g><g clip-path="url(#57)"></g><g clip-path="url(#58)"></g><g clip-path="url(#59)"></g><g clip-path="url(#60)"></g><g clip-path="url(#61)"></g><g clip-path="url(#62)"></g></g><g clip-path="url(#63)"><g transform="matrix(0.3264706 0 0 0.3263072 283.45 574.33)"><g transform="matrix(1 0 0 1 0 0)"><image x="0" y="0" xlink:href="img_15.png" width="255" height="306" /></g></g></g><g clip-path="url(#64)"><g transform="matrix(0.3247826 0 0 0.3244718 44.15 472.73)"><g transform="matrix(1 0 0 1 0 0)"><image x="0" y="0" xlink:href="img_16.png" width="345" height="284" /></g></g></g><g clip-path="url(#65)"><g transform="matrix(0.3270769 0 0 0.3271875 158.25 469.33)"><g transform="matrix(1 0 0 1 0 0)"><image x="0" y="0" xlink:href="img_17.png" width="325" height="320" /></g></g></g><g clip-path="url(#66)"><g transform="matrix(0.3266332 0 0 0.327022 361.35 580.03)"><g transform="matrix(1 0 0 1 0 0)"><image x="0" y="0" xlink:href="img_18.png" width="597" height="272" /></g></g></g><path id="960" transform="matrix(1 0 0 -1 0 841)" d="M45 164.67L282 164.67L282 164.67L282 263.67L282 263.67L45 263.67z" stroke="none" fill="#FFFFFF" fill-rule="evenodd" /><path id="961" transform="matrix(1 0 0 -1 0 841)" d="M45 164.67L282 164.67L282 164.67L282 263.67L282 263.67L45 263.67z" stroke="#7C7C7C" stroke-width="0.5" fill="none" /><g clip-path="url(#67)"><g clip-path="url(#68)"></g><g clip-path="url(#69)"></g><g clip-path="url(#70)"></g><g clip-path="url(#71)"></g><g clip-path="url(#72)"></g><g clip-path="url(#73)"></g><g clip-path="url(#74)"></g><g clip-path="url(#75)"></g><g clip-path="url(#76)"></g><g clip-path="url(#77)"></g><g clip-path="url(#78)"></g><g clip-path="url(#79)"></g></g></g></g></svg>